<svg width="1920" height="768" viewBox="0 0 1920 768" fill="none" xmlns="http://www.w3.org/2000/svg">
<rect width="1920" height="768" fill="white"/>
<rect x="215.626" y="66" width="262.249" height="95.2874" rx="23.2408" fill="#E2FCFC"/>
<path d="M264.386 138.047L270.451 89.2408H279.934L273.868 138.047H264.386ZM238.867 127.658V118.664H285.023V127.658H238.867ZM246.327 138.047L252.393 89.2408H261.876L255.81 138.047H246.327ZM241.168 108.624V99.6295H287.394V108.624H241.168Z" fill="#7EE7E7"/>
<path d="M312.518 146.251C310.891 146.251 309.357 146.065 307.916 145.693C306.428 145.367 305.173 144.833 304.151 144.089L306.661 137.605C308.009 138.581 309.705 139.069 311.751 139.069C313.331 139.069 314.563 138.558 315.446 137.535C316.329 136.559 316.771 135.095 316.771 133.143V95.0045H325.486V132.934C325.486 137.024 324.347 140.254 322.069 142.625C319.838 145.042 316.654 146.251 312.518 146.251ZM321.093 88.869C319.467 88.869 318.119 88.3577 317.049 87.3351C316.027 86.3125 315.516 85.0807 315.516 83.6398C315.516 82.1524 316.027 80.9206 317.049 79.9445C318.119 78.9219 319.467 78.4106 321.093 78.4106C322.72 78.4106 324.045 78.8986 325.068 79.8748C326.137 80.8044 326.671 81.9897 326.671 83.4306C326.671 84.9645 326.16 86.266 325.137 87.3351C324.115 88.3577 322.767 88.869 321.093 88.869ZM359.854 132.236V124.706L359.366 123.103V109.925C359.366 107.369 358.599 105.393 357.065 103.999C355.531 102.558 353.207 101.837 350.092 101.837C348.001 101.837 345.932 102.163 343.887 102.813C341.888 103.464 340.192 104.371 338.797 105.533L335.381 99.1879C337.38 97.654 339.75 96.5152 342.493 95.7715C345.282 94.9813 348.163 94.5862 351.138 94.5862C356.53 94.5862 360.69 95.8877 363.619 98.4907C366.593 101.047 368.081 105.021 368.081 110.413V132.236H359.854ZM348.14 132.724C345.351 132.724 342.911 132.26 340.819 131.33C338.728 130.354 337.101 129.029 335.939 127.356C334.823 125.636 334.265 123.707 334.265 121.569C334.265 119.477 334.754 117.595 335.73 115.921C336.752 114.248 338.402 112.923 340.68 111.947C342.958 110.971 345.979 110.483 349.744 110.483H360.551V116.27H350.371C347.397 116.27 345.398 116.758 344.375 117.734C343.353 118.664 342.841 119.826 342.841 121.22C342.841 122.801 343.469 124.056 344.724 124.985C345.979 125.915 347.722 126.38 349.953 126.38C352.091 126.38 353.997 125.892 355.67 124.915C357.39 123.939 358.622 122.498 359.366 120.593L360.83 125.822C359.993 128.006 358.482 129.703 356.298 130.912C354.16 132.12 351.44 132.724 348.14 132.724ZM388.486 132.236L372.519 95.0045H381.583L395.318 127.844H390.856L405.08 95.0045H413.446L397.48 132.236H388.486ZM440.674 132.236V124.706L440.186 123.103V109.925C440.186 107.369 439.419 105.393 437.886 103.999C436.352 102.558 434.028 101.837 430.913 101.837C428.822 101.837 426.753 102.163 424.708 102.813C422.709 103.464 421.013 104.371 419.618 105.533L416.202 99.1879C418.201 97.654 420.571 96.5152 423.314 95.7715C426.102 94.9813 428.984 94.5862 431.959 94.5862C437.351 94.5862 441.511 95.8877 444.439 98.4907C447.414 101.047 448.902 105.021 448.902 110.413V132.236H440.674ZM428.961 132.724C426.172 132.724 423.732 132.26 421.64 131.33C419.549 130.354 417.922 129.029 416.76 127.356C415.644 125.636 415.086 123.707 415.086 121.569C415.086 119.477 415.574 117.595 416.551 115.921C417.573 114.248 419.223 112.923 421.501 111.947C423.778 110.971 426.8 110.483 430.565 110.483H441.372V116.27H431.192C428.217 116.27 426.219 116.758 425.196 117.734C424.173 118.664 423.662 119.826 423.662 121.22C423.662 122.801 424.29 124.056 425.545 124.985C426.8 125.915 428.543 126.38 430.774 126.38C432.912 126.38 434.818 125.892 436.491 124.915C438.211 123.939 439.443 122.498 440.186 120.593L441.651 125.822C440.814 128.006 439.303 129.703 437.119 130.912C434.98 132.12 432.261 132.724 428.961 132.724Z" fill="#7EE7E7"/>
<rect x="517.126" y="66" width="294.249" height="95.2874" rx="23.2408" fill="#E2E2FC"/>
<path d="M565.885 138.047L571.951 89.2408H581.433L575.367 138.047H565.885ZM540.366 127.658V118.664H586.523V127.658H540.366ZM547.827 138.047L553.893 89.2408H563.375L557.309 138.047H547.827ZM542.667 108.624V99.6295H588.893V108.624H542.667Z" fill="#8A8AFC"/>
<path d="M617.852 132.236V80.5023H626.567V132.236H617.852ZM638.006 132.236V95.0045H646.721V132.236H638.006ZM642.398 88.869C640.771 88.869 639.423 88.3577 638.354 87.3351C637.332 86.3125 636.82 85.0807 636.82 83.6398C636.82 82.1524 637.332 80.9206 638.354 79.9445C639.423 78.9219 640.771 78.4106 642.398 78.4106C644.025 78.4106 645.35 78.8986 646.372 79.8748C647.441 80.8044 647.976 81.9897 647.976 83.4306C647.976 84.9645 647.465 86.266 646.442 87.3351C645.419 88.3577 644.072 88.869 642.398 88.869ZM679.286 94.5862C682.261 94.5862 684.91 95.1672 687.234 96.3293C689.605 97.4913 691.464 99.2808 692.812 101.698C694.16 104.068 694.834 107.136 694.834 110.901V132.236H686.119V112.017C686.119 108.717 685.328 106.253 683.748 104.626C682.214 102.999 680.053 102.186 677.264 102.186C675.219 102.186 673.406 102.604 671.825 103.441C670.245 104.278 669.013 105.533 668.13 107.206C667.293 108.833 666.875 110.901 666.875 113.411V132.236H658.16V95.0045H666.457V105.045L664.993 101.977C666.294 99.6062 668.177 97.7934 670.64 96.5384C673.15 95.2369 676.032 94.5862 679.286 94.5862ZM721.647 132.724C718.486 132.724 715.697 132.143 713.28 130.981C710.863 129.773 708.981 127.96 707.633 125.543C706.285 123.079 705.611 119.988 705.611 116.27V95.0045H714.326V115.085C714.326 118.431 715.07 120.941 716.557 122.615C718.091 124.241 720.253 125.055 723.041 125.055C725.087 125.055 726.853 124.637 728.34 123.8C729.874 122.963 731.06 121.708 731.896 120.035C732.779 118.362 733.221 116.293 733.221 113.83V95.0045H741.936V132.236H733.639V122.196L735.103 125.264C733.848 127.681 732.012 129.54 729.595 130.842C727.178 132.097 724.529 132.724 721.647 132.724ZM748.258 132.236L764.642 110.901L764.503 115.573L748.885 95.0045H758.576L769.523 109.646H765.828L776.844 95.0045H786.256L770.499 115.573L770.569 110.901L786.884 132.236H777.053L765.549 116.688L769.174 117.176L757.879 132.236H748.258Z" fill="#8A8AFC"/>
<rect x="850.625" y="66" width="301.249" height="95.2874" rx="23.2408" fill="#E2FCE2"/>
<path d="M899.384 138.047L905.45 89.2408H914.932L908.866 138.047H899.384ZM873.866 127.658V118.664H920.022V127.658H873.866ZM881.326 138.047L887.392 89.2408H896.874L890.808 138.047H881.326ZM876.167 108.624V99.6295H922.393V108.624H876.167Z" fill="#77D977"/>
<path d="M962.855 132.724C959.741 132.724 956.743 132.329 953.861 131.539C951.025 130.702 948.771 129.703 947.098 128.541L950.444 121.917C952.118 122.986 954.116 123.87 956.441 124.567C958.765 125.264 961.089 125.613 963.413 125.613C966.155 125.613 968.131 125.241 969.339 124.497C970.594 123.753 971.222 122.754 971.222 121.499C971.222 120.476 970.803 119.71 969.967 119.198C969.13 118.64 968.038 118.222 966.69 117.943C965.342 117.664 963.831 117.409 962.158 117.176C960.531 116.944 958.881 116.642 957.207 116.27C955.581 115.852 954.093 115.271 952.745 114.527C951.397 113.737 950.305 112.691 949.468 111.389C948.632 110.088 948.213 108.368 948.213 106.23C948.213 103.859 948.887 101.814 950.235 100.094C951.583 98.328 953.466 96.98 955.883 96.0504C958.346 95.0743 961.251 94.5862 964.598 94.5862C967.108 94.5862 969.641 94.8651 972.198 95.4229C974.754 95.9806 976.869 96.7708 978.543 97.7934L975.196 104.417C973.43 103.348 971.64 102.628 969.827 102.256C968.061 101.837 966.295 101.628 964.528 101.628C961.879 101.628 959.903 102.023 958.602 102.813C957.347 103.604 956.719 104.603 956.719 105.812C956.719 106.927 957.138 107.764 957.974 108.322C958.811 108.879 959.903 109.321 961.251 109.646C962.599 109.972 964.087 110.251 965.714 110.483C967.387 110.669 969.037 110.971 970.664 111.389C972.291 111.808 973.778 112.389 975.126 113.132C976.521 113.83 977.636 114.829 978.473 116.13C979.309 117.432 979.728 119.129 979.728 121.22C979.728 123.544 979.031 125.566 977.636 127.286C976.288 129.006 974.359 130.354 971.849 131.33C969.339 132.26 966.341 132.724 962.855 132.724ZM1034.23 94.5862C1037.2 94.5862 1039.83 95.1672 1042.1 96.3293C1044.43 97.4913 1046.24 99.2808 1047.54 101.698C1048.84 104.068 1049.5 107.136 1049.5 110.901V132.236H1040.78V112.017C1040.78 108.717 1040.06 106.253 1038.62 104.626C1037.18 102.999 1035.11 102.186 1032.41 102.186C1030.51 102.186 1028.81 102.604 1027.32 103.441C1025.88 104.278 1024.74 105.509 1023.91 107.136C1023.12 108.763 1022.72 110.832 1022.72 113.342V132.236H1014.01V112.017C1014.01 108.717 1013.29 106.253 1011.85 104.626C1010.4 102.999 1008.34 102.186 1005.64 102.186C1003.73 102.186 1002.04 102.604 1000.55 103.441C999.109 104.278 997.971 105.509 997.134 107.136C996.344 108.763 995.949 110.832 995.949 113.342V132.236H987.233V95.0045H995.53V104.905L994.066 101.977C995.321 99.5597 997.134 97.7237 999.504 96.4687C1001.92 95.2137 1004.66 94.5862 1007.73 94.5862C1011.22 94.5862 1014.24 95.4461 1016.8 97.1659C1019.4 98.8858 1021.12 101.489 1021.96 104.975L1018.54 103.79C1019.75 101.001 1021.75 98.7695 1024.53 97.0962C1027.32 95.4229 1030.55 94.5862 1034.23 94.5862ZM1107.63 94.5862C1110.6 94.5862 1113.23 95.1672 1115.5 96.3293C1117.83 97.4913 1119.64 99.2808 1120.94 101.698C1122.24 104.068 1122.89 107.136 1122.89 110.901V132.236H1114.18V112.017C1114.18 108.717 1113.46 106.253 1112.02 104.626C1110.58 102.999 1108.51 102.186 1105.81 102.186C1103.91 102.186 1102.21 102.604 1100.72 103.441C1099.28 104.278 1098.14 105.509 1097.31 107.136C1096.52 108.763 1096.12 110.832 1096.12 113.342V132.236H1087.41V112.017C1087.41 108.717 1086.69 106.253 1085.24 104.626C1083.8 102.999 1081.74 102.186 1079.04 102.186C1077.13 102.186 1075.44 102.604 1073.95 103.441C1072.51 104.278 1071.37 105.509 1070.53 107.136C1069.74 108.763 1069.35 110.832 1069.35 113.342V132.236H1060.63V95.0045H1068.93V104.905L1067.47 101.977C1068.72 99.5597 1070.53 97.7237 1072.9 96.4687C1075.32 95.2137 1078.06 94.5862 1081.13 94.5862C1084.62 94.5862 1087.64 95.4461 1090.19 97.1659C1092.8 98.8858 1094.52 101.489 1095.35 104.975L1091.94 103.79C1093.15 101.001 1095.15 98.7695 1097.93 97.0962C1100.72 95.4229 1103.95 94.5862 1107.63 94.5862Z" fill="#77D977"/>
<rect x="1191.12" y="66" width="513.249" height="95.2874" rx="23.2408" fill="#FCE2FC"/>
<path d="M1239.88 138.047L1245.95 89.2408H1255.43L1249.37 138.047H1239.88ZM1214.36 127.658V118.664H1260.52V127.658H1214.36ZM1221.83 138.047L1227.89 89.2408H1237.37L1231.31 138.047H1221.83ZM1216.67 108.624V99.6295H1262.89V108.624H1216.67Z" fill="#FC8AFC"/>
<path d="M1314.58 132.236V124.706L1314.09 123.103V109.925C1314.09 107.369 1313.32 105.393 1311.79 103.999C1310.26 102.558 1307.93 101.837 1304.82 101.837C1302.73 101.837 1300.66 102.163 1298.61 102.813C1296.61 103.464 1294.92 104.371 1293.52 105.533L1290.11 99.1879C1292.11 97.654 1294.48 96.5152 1297.22 95.7715C1300.01 94.9813 1302.89 94.5862 1305.86 94.5862C1311.26 94.5862 1315.42 95.8877 1318.34 98.4907C1321.32 101.047 1322.81 105.021 1322.81 110.413V132.236H1314.58ZM1302.87 132.724C1300.08 132.724 1297.64 132.26 1295.55 131.33C1293.45 130.354 1291.83 129.029 1290.66 127.356C1289.55 125.636 1288.99 123.707 1288.99 121.569C1288.99 119.477 1289.48 117.595 1290.46 115.921C1291.48 114.248 1293.13 112.923 1295.41 111.947C1297.68 110.971 1300.7 110.483 1304.47 110.483H1315.28V116.27H1305.1C1302.12 116.27 1300.12 116.758 1299.1 117.734C1298.08 118.664 1297.57 119.826 1297.57 121.22C1297.57 122.801 1298.19 124.056 1299.45 124.985C1300.7 125.915 1302.45 126.38 1304.68 126.38C1306.82 126.38 1308.72 125.892 1310.4 124.915C1312.12 123.939 1313.35 122.498 1314.09 120.593L1315.56 125.822C1314.72 128.006 1313.21 129.703 1311.02 130.912C1308.89 132.12 1306.17 132.724 1302.87 132.724ZM1333.59 132.236V95.0045H1342.31V110.134H1361.06V95.0045H1369.78V132.236H1361.06V117.525H1342.31V132.236H1333.59ZM1404.05 132.236V124.706L1403.56 123.103V109.925C1403.56 107.369 1402.79 105.393 1401.26 103.999C1399.72 102.558 1397.4 101.837 1394.29 101.837C1392.19 101.837 1390.13 102.163 1388.08 102.813C1386.08 103.464 1384.39 104.371 1382.99 105.533L1379.58 99.1879C1381.57 97.654 1383.94 96.5152 1386.69 95.7715C1389.48 94.9813 1392.36 94.5862 1395.33 94.5862C1400.72 94.5862 1404.88 95.8877 1407.81 98.4907C1410.79 101.047 1412.27 105.021 1412.27 110.413V132.236H1404.05ZM1392.33 132.724C1389.55 132.724 1387.11 132.26 1385.01 131.33C1382.92 130.354 1381.29 129.029 1380.13 127.356C1379.02 125.636 1378.46 123.707 1378.46 121.569C1378.46 119.477 1378.95 117.595 1379.92 115.921C1380.95 114.248 1382.6 112.923 1384.87 111.947C1387.15 110.971 1390.17 110.483 1393.94 110.483H1404.74V116.27H1394.57C1391.59 116.27 1389.59 116.758 1388.57 117.734C1387.55 118.664 1387.04 119.826 1387.04 121.22C1387.04 122.801 1387.66 124.056 1388.92 124.985C1390.17 125.915 1391.92 126.38 1394.15 126.38C1396.29 126.38 1398.19 125.892 1399.86 124.915C1401.58 123.939 1402.82 122.498 1403.56 120.593L1405.02 125.822C1404.19 128.006 1402.68 129.703 1400.49 130.912C1398.35 132.12 1395.63 132.724 1392.33 132.724ZM1417.62 132.167L1418.04 124.846C1418.36 124.892 1418.67 124.939 1418.95 124.985C1419.22 125.032 1419.48 125.055 1419.71 125.055C1421.15 125.055 1422.27 124.613 1423.06 123.73C1423.85 122.847 1424.43 121.662 1424.8 120.174C1425.22 118.64 1425.5 116.944 1425.64 115.085C1425.83 113.179 1425.96 111.273 1426.06 109.367L1426.69 95.0045H1456.81V132.236H1448.09V100.025L1450.11 102.395H1432.4L1434.28 99.9548L1433.8 109.786C1433.66 113.086 1433.38 116.154 1432.96 118.989C1432.59 121.778 1431.98 124.218 1431.15 126.31C1430.36 128.402 1429.24 130.028 1427.8 131.19C1426.41 132.353 1424.62 132.934 1422.43 132.934C1421.73 132.934 1420.97 132.864 1420.13 132.724C1419.34 132.585 1418.5 132.399 1417.62 132.167ZM1468.54 132.236V95.0045H1477.26V119.547L1497.83 95.0045H1505.77V132.236H1497.06V107.694L1476.56 132.236H1468.54ZM1525.24 132.236V100.303L1527.26 102.395H1512.13V95.0045H1546.99V102.395H1531.93L1533.95 100.303V132.236H1525.24ZM1553.31 132.236V95.0045H1562.03V119.547L1582.6 95.0045H1590.54V132.236H1581.83V107.694L1561.33 132.236H1553.31ZM1628.97 132.236L1615.52 114.387L1622.63 109.995L1639.22 132.236H1628.97ZM1602.27 132.236V95.0045H1610.98V132.236H1602.27ZM1608.4 117.316V110.065H1621.02V117.316H1608.4ZM1623.46 114.666L1615.31 113.69L1628.97 95.0045H1638.31L1623.46 114.666ZM1667.28 132.236V124.706L1666.79 123.103V109.925C1666.79 107.369 1666.02 105.393 1664.49 103.999C1662.95 102.558 1660.63 101.837 1657.52 101.837C1655.42 101.837 1653.36 102.163 1651.31 102.813C1649.31 103.464 1647.62 104.371 1646.22 105.533L1642.8 99.1879C1644.8 97.654 1647.17 96.5152 1649.92 95.7715C1652.71 94.9813 1655.59 94.5862 1658.56 94.5862C1663.95 94.5862 1668.11 95.8877 1671.04 98.4907C1674.02 101.047 1675.5 105.021 1675.5 110.413V132.236H1667.28ZM1655.56 132.724C1652.77 132.724 1650.33 132.26 1648.24 131.33C1646.15 130.354 1644.52 129.029 1643.36 127.356C1642.25 125.636 1641.69 123.707 1641.69 121.569C1641.69 119.477 1642.18 117.595 1643.15 115.921C1644.18 114.248 1645.83 112.923 1648.1 111.947C1650.38 110.971 1653.4 110.483 1657.17 110.483H1667.97V116.27H1657.79C1654.82 116.27 1652.82 116.758 1651.8 117.734C1650.78 118.664 1650.26 119.826 1650.26 121.22C1650.26 122.801 1650.89 124.056 1652.15 124.985C1653.4 125.915 1655.15 126.38 1657.38 126.38C1659.51 126.38 1661.42 125.892 1663.09 124.915C1664.81 123.939 1666.05 122.498 1666.79 120.593L1668.25 125.822C1667.42 128.006 1665.91 129.703 1663.72 130.912C1661.58 132.12 1658.86 132.724 1655.56 132.724Z" fill="#FC8AFC"/>
<rect x="47.376" y="201.287" width="456.249" height="95.2874" rx="23.2408" fill="#FCFCE2"/>
<path d="M96.1351 273.334L102.201 224.528H111.683L105.617 273.334H96.1351ZM70.6167 262.945V253.951H116.773V262.945H70.6167ZM78.077 273.334L84.1429 224.528H93.6251L87.5593 273.334H78.077ZM72.9175 243.911V234.917H119.144V243.911H72.9175Z" fill="#DADA82"/>
<path d="M173.76 263.48V237.682H159.467L159.257 243.679C159.164 245.817 159.025 247.885 158.839 249.884C158.653 251.836 158.351 253.649 157.933 255.322C157.514 256.949 156.91 258.297 156.12 259.366C155.33 260.435 154.284 261.132 152.982 261.458L144.337 260.133C145.731 260.133 146.847 259.692 147.683 258.808C148.567 257.879 149.241 256.624 149.705 255.043C150.217 253.417 150.589 251.58 150.821 249.535C151.053 247.444 151.216 245.282 151.309 243.051L151.797 230.292H182.475V263.48H173.76ZM143.012 275.821V260.133H187.983V275.821H179.825V267.524H151.1V275.821H143.012ZM212.361 268.012C208.549 268.012 205.156 267.198 202.181 265.571C199.207 263.898 196.859 261.621 195.139 258.739C193.42 255.857 192.56 252.58 192.56 248.908C192.56 245.189 193.42 241.912 195.139 239.077C196.859 236.195 199.207 233.941 202.181 232.314C205.156 230.687 208.549 229.874 212.361 229.874C216.219 229.874 219.635 230.687 222.61 232.314C225.631 233.941 227.979 236.172 229.652 239.007C231.372 241.843 232.232 245.143 232.232 248.908C232.232 252.58 231.372 255.857 229.652 258.739C227.979 261.621 225.631 263.898 222.61 265.571C219.635 267.198 216.219 268.012 212.361 268.012ZM212.361 260.551C214.499 260.551 216.405 260.087 218.078 259.157C219.751 258.227 221.053 256.879 221.983 255.113C222.959 253.347 223.447 251.278 223.447 248.908C223.447 246.491 222.959 244.422 221.983 242.702C221.053 240.936 219.751 239.588 218.078 238.659C216.405 237.729 214.522 237.264 212.431 237.264C210.292 237.264 208.387 237.729 206.713 238.659C205.086 239.588 203.785 240.936 202.809 242.702C201.833 244.422 201.345 246.491 201.345 248.908C201.345 251.278 201.833 253.347 202.809 255.113C203.785 256.879 205.086 258.227 206.713 259.157C208.387 260.087 210.269 260.551 212.361 260.551ZM257.784 268.012C253.879 268.012 250.393 267.198 247.326 265.571C244.304 263.898 241.934 261.621 240.214 258.739C238.494 255.857 237.634 252.58 237.634 248.908C237.634 245.189 238.494 241.912 240.214 239.077C241.934 236.195 244.304 233.941 247.326 232.314C250.393 230.687 253.879 229.874 257.784 229.874C261.409 229.874 264.593 230.617 267.336 232.105C270.125 233.546 272.24 235.684 273.681 238.519L266.987 242.424C265.872 240.657 264.501 239.356 262.874 238.519C261.293 237.682 259.573 237.264 257.714 237.264C255.576 237.264 253.647 237.729 251.927 238.659C250.207 239.588 248.859 240.936 247.883 242.702C246.907 244.422 246.419 246.491 246.419 248.908C246.419 251.325 246.907 253.417 247.883 255.183C248.859 256.903 250.207 258.227 251.927 259.157C253.647 260.087 255.576 260.551 257.714 260.551C259.573 260.551 261.293 260.133 262.874 259.296C264.501 258.46 265.872 257.158 266.987 255.392L273.681 259.296C272.24 262.085 270.125 264.247 267.336 265.781C264.593 267.268 261.409 268.012 257.784 268.012ZM288.821 267.524V235.591L290.843 237.682H275.713V230.292H310.574V237.682H295.514L297.536 235.591V267.524H288.821ZM339.486 267.524V259.994L338.998 258.39V245.212C338.998 242.656 338.231 240.681 336.697 239.286C335.163 237.845 332.839 237.125 329.725 237.125C327.633 237.125 325.565 237.45 323.52 238.101C321.521 238.752 319.824 239.658 318.43 240.82L315.014 234.475C317.012 232.941 319.383 231.803 322.125 231.059C324.914 230.269 327.796 229.874 330.771 229.874C336.163 229.874 340.323 231.175 343.251 233.778C346.226 236.335 347.713 240.309 347.713 245.701V267.524H339.486ZM327.773 268.012C324.984 268.012 322.544 267.547 320.452 266.617C318.36 265.641 316.733 264.316 315.571 262.643C314.456 260.923 313.898 258.994 313.898 256.856C313.898 254.764 314.386 252.882 315.362 251.209C316.385 249.535 318.035 248.211 320.312 247.234C322.59 246.258 325.611 245.77 329.376 245.77H340.183V251.557H330.004C327.029 251.557 325.03 252.045 324.008 253.021C322.985 253.951 322.474 255.113 322.474 256.508C322.474 258.088 323.101 259.343 324.356 260.273C325.611 261.202 327.354 261.667 329.586 261.667C331.724 261.667 333.629 261.179 335.303 260.203C337.023 259.227 338.254 257.786 338.998 255.88L340.462 261.109C339.626 263.294 338.115 264.99 335.93 266.199C333.792 267.407 331.073 268.012 327.773 268.012ZM358.498 267.524V230.292H376.696C381.204 230.292 384.737 231.129 387.293 232.802C389.896 234.475 391.198 236.846 391.198 239.914C391.198 242.935 389.989 245.305 387.572 247.025C385.155 248.699 381.948 249.535 377.951 249.535L378.996 247.374C383.505 247.374 386.852 248.211 389.036 249.884C391.268 251.511 392.383 253.905 392.383 257.065C392.383 260.366 391.151 262.945 388.688 264.805C386.224 266.617 382.483 267.524 377.463 267.524H358.498ZM366.795 261.179H376.765C379.136 261.179 380.925 260.807 382.134 260.063C383.342 259.273 383.947 258.088 383.947 256.508C383.947 254.834 383.389 253.602 382.273 252.812C381.158 252.022 379.415 251.627 377.044 251.627H366.795V261.179ZM366.795 245.84H375.929C378.16 245.84 379.833 245.445 380.949 244.655C382.111 243.818 382.692 242.656 382.692 241.169C382.692 239.635 382.111 238.496 380.949 237.752C379.833 237.008 378.16 236.637 375.929 236.637H366.795V245.84ZM428.37 267.524L414.913 249.675L422.025 245.282L438.619 267.524H428.37ZM401.666 267.524V230.292H410.381V267.524H401.666ZM407.802 252.603V245.352H420.421V252.603H407.802ZM422.862 249.954L414.704 248.978L428.37 230.292H437.713L422.862 249.954ZM466.675 267.524V259.994L466.187 258.39V245.212C466.187 242.656 465.42 240.681 463.886 239.286C462.352 237.845 460.028 237.125 456.914 237.125C454.822 237.125 452.754 237.45 450.709 238.101C448.71 238.752 447.013 239.658 445.619 240.82L442.203 234.475C444.201 232.941 446.572 231.803 449.314 231.059C452.103 230.269 454.985 229.874 457.96 229.874C463.352 229.874 467.512 231.175 470.44 233.778C473.415 236.335 474.902 240.309 474.902 245.701V267.524H466.675ZM454.962 268.012C452.173 268.012 449.733 267.547 447.641 266.617C445.549 265.641 443.922 264.316 442.76 262.643C441.645 260.923 441.087 258.994 441.087 256.856C441.087 254.764 441.575 252.882 442.551 251.209C443.574 249.535 445.224 248.211 447.501 247.234C449.779 246.258 452.8 245.77 456.565 245.77H467.372V251.557H457.193C454.218 251.557 452.219 252.045 451.197 253.021C450.174 253.951 449.663 255.113 449.663 256.508C449.663 258.088 450.29 259.343 451.545 260.273C452.8 261.202 454.543 261.667 456.775 261.667C458.913 261.667 460.818 261.179 462.492 260.203C464.212 259.227 465.443 257.786 466.187 255.88L467.651 261.109C466.815 263.294 465.304 264.99 463.119 266.199C460.981 267.407 458.262 268.012 454.962 268.012Z" fill="#DADA82"/>
<rect x="542.875" y="201.287" width="573.249" height="95.2874" rx="23.2408" fill="#FCE2E2"/>
<path d="M591.635 273.334L597.7 224.528H607.183L601.117 273.334H591.635ZM566.116 262.945V253.951H612.272V262.945H566.116ZM573.577 273.334L579.642 224.528H589.125L583.059 273.334H573.577ZM568.417 243.911V234.917H614.643V243.911H568.417Z" fill="#FC8A8A"/>
<path d="M667.377 268.221C667.33 268.221 667.121 268.221 666.749 268.221C666.424 268.221 666.098 268.221 665.773 268.221C665.494 268.221 665.308 268.221 665.215 268.221C657.36 268.128 651.271 266.431 646.948 263.131C642.625 259.784 640.464 255.02 640.464 248.838C640.464 242.702 642.625 238.008 646.948 234.754C651.271 231.5 657.43 229.827 665.424 229.734C665.517 229.734 665.703 229.734 665.982 229.734C666.308 229.734 666.61 229.734 666.889 229.734C667.214 229.734 667.4 229.734 667.446 229.734C675.488 229.734 681.739 231.384 686.202 234.684C690.71 237.938 692.965 242.656 692.965 248.838C692.965 255.067 690.71 259.854 686.202 263.201C681.739 266.548 675.464 268.221 667.377 268.221ZM667.098 260.97C671.049 260.97 674.302 260.528 676.859 259.645C679.415 258.715 681.321 257.367 682.576 255.601C683.831 253.788 684.459 251.534 684.459 248.838C684.459 246.189 683.831 244.004 682.576 242.284C681.321 240.518 679.415 239.216 676.859 238.38C674.302 237.497 671.049 237.055 667.098 237.055C667.005 237.055 666.772 237.055 666.401 237.055C666.075 237.055 665.866 237.055 665.773 237.055C661.915 237.055 658.754 237.52 656.291 238.449C653.827 239.333 651.991 240.634 650.783 242.354C649.621 244.074 649.04 246.235 649.04 248.838C649.04 251.488 649.621 253.695 650.783 255.462C651.991 257.228 653.827 258.576 656.291 259.506C658.801 260.435 661.962 260.923 665.773 260.97C665.866 260.97 666.075 260.97 666.401 260.97C666.772 260.97 667.005 260.97 667.098 260.97ZM662.566 281.05V215.79H670.793V281.05H662.566ZM718.005 268.012C714.194 268.012 710.801 267.198 707.826 265.571C704.851 263.898 702.504 261.621 700.784 258.739C699.064 255.857 698.204 252.58 698.204 248.908C698.204 245.189 699.064 241.912 700.784 239.077C702.504 236.195 704.851 233.941 707.826 232.314C710.801 230.687 714.194 229.874 718.005 229.874C721.863 229.874 725.28 230.687 728.255 232.314C731.276 233.941 733.623 236.172 735.297 239.007C737.016 241.843 737.876 245.143 737.876 248.908C737.876 252.58 737.016 255.857 735.297 258.739C733.623 261.621 731.276 263.898 728.255 265.571C725.28 267.198 721.863 268.012 718.005 268.012ZM718.005 260.551C720.144 260.551 722.049 260.087 723.723 259.157C725.396 258.227 726.698 256.879 727.627 255.113C728.603 253.347 729.091 251.278 729.091 248.908C729.091 246.491 728.603 244.422 727.627 242.702C726.698 240.936 725.396 239.588 723.723 238.659C722.049 237.729 720.167 237.264 718.075 237.264C715.937 237.264 714.031 237.729 712.358 238.659C710.731 239.588 709.43 240.936 708.454 242.702C707.477 244.422 706.989 246.491 706.989 248.908C706.989 251.278 707.477 253.347 708.454 255.113C709.43 256.879 710.731 258.227 712.358 259.157C714.031 260.087 715.914 260.551 718.005 260.551ZM752.863 267.524V235.591L754.885 237.682H739.756V230.292H774.617V237.682H759.557L761.579 235.591V267.524H752.863ZM795.899 268.012C792.087 268.012 788.694 267.198 785.719 265.571C782.744 263.898 780.397 261.621 778.677 258.739C776.957 255.857 776.097 252.58 776.097 248.908C776.097 245.189 776.957 241.912 778.677 239.077C780.397 236.195 782.744 233.941 785.719 232.314C788.694 230.687 792.087 229.874 795.899 229.874C799.757 229.874 803.173 230.687 806.148 232.314C809.169 233.941 811.516 236.172 813.19 239.007C814.91 241.843 815.769 245.143 815.769 248.908C815.769 252.58 814.91 255.857 813.19 258.739C811.516 261.621 809.169 263.898 806.148 265.571C803.173 267.198 799.757 268.012 795.899 268.012ZM795.899 260.551C798.037 260.551 799.942 260.087 801.616 259.157C803.289 258.227 804.591 256.879 805.52 255.113C806.496 253.347 806.984 251.278 806.984 248.908C806.984 246.491 806.496 244.422 805.52 242.702C804.591 240.936 803.289 239.588 801.616 238.659C799.942 237.729 798.06 237.264 795.968 237.264C793.83 237.264 791.924 237.729 790.251 238.659C788.624 239.588 787.323 240.936 786.347 242.702C785.37 244.422 784.882 246.491 784.882 248.908C784.882 251.278 785.37 253.347 786.347 255.113C787.323 256.879 788.624 258.227 790.251 259.157C791.924 260.087 793.807 260.551 795.899 260.551ZM824.379 267.524V230.292H852.965V237.682H831.072L833.094 235.73V267.524H824.379ZM879.946 268.012C876.925 268.012 874.159 267.315 871.649 265.92C869.186 264.526 867.21 262.434 865.723 259.645C864.282 256.81 863.561 253.231 863.561 248.908C863.561 244.539 864.259 240.959 865.653 238.171C867.094 235.382 869.046 233.313 871.51 231.965C873.973 230.571 876.785 229.874 879.946 229.874C883.618 229.874 886.849 230.664 889.638 232.244C892.473 233.824 894.704 236.032 896.331 238.868C898.004 241.703 898.841 245.05 898.841 248.908C898.841 252.766 898.004 256.136 896.331 259.018C894.704 261.853 892.473 264.061 889.638 265.641C886.849 267.222 883.618 268.012 879.946 268.012ZM859.308 281.05V230.292H867.605V239.077L867.326 248.978L868.024 258.878V281.05H859.308ZM878.97 260.551C881.062 260.551 882.921 260.087 884.548 259.157C886.221 258.227 887.546 256.879 888.522 255.113C889.498 253.347 889.986 251.278 889.986 248.908C889.986 246.491 889.498 244.422 888.522 242.702C887.546 240.936 886.221 239.588 884.548 238.659C882.921 237.729 881.062 237.264 878.97 237.264C876.878 237.264 874.996 237.729 873.323 238.659C871.649 239.588 870.325 240.936 869.348 242.702C868.372 244.422 867.884 246.491 867.884 248.908C867.884 251.278 868.372 253.347 869.348 255.113C870.325 256.879 871.649 258.227 873.323 259.157C874.996 260.087 876.878 260.551 878.97 260.551ZM929.628 267.524V259.994L929.14 258.39V245.212C929.14 242.656 928.373 240.681 926.84 239.286C925.306 237.845 922.982 237.125 919.867 237.125C917.776 237.125 915.707 237.45 913.662 238.101C911.663 238.752 909.967 239.658 908.572 240.82L905.156 234.475C907.155 232.941 909.525 231.803 912.268 231.059C915.056 230.269 917.938 229.874 920.913 229.874C926.305 229.874 930.465 231.175 933.393 233.778C936.368 236.335 937.856 240.309 937.856 245.701V267.524H929.628ZM917.915 268.012C915.126 268.012 912.686 267.547 910.594 266.617C908.502 265.641 906.876 264.316 905.714 262.643C904.598 260.923 904.04 258.994 904.04 256.856C904.04 254.764 904.528 252.882 905.504 251.209C906.527 249.535 908.177 248.211 910.455 247.234C912.732 246.258 915.754 245.77 919.519 245.77H930.326V251.557H920.146C917.171 251.557 915.173 252.045 914.15 253.021C913.127 253.951 912.616 255.113 912.616 256.508C912.616 258.088 913.244 259.343 914.499 260.273C915.754 261.202 917.497 261.667 919.728 261.667C921.866 261.667 923.772 261.179 925.445 260.203C927.165 259.227 928.397 257.786 929.14 255.88L930.605 261.109C929.768 263.294 928.257 264.99 926.073 266.199C923.934 267.407 921.215 268.012 917.915 268.012ZM972.276 268.221C972.23 268.221 972.021 268.221 971.649 268.221C971.323 268.221 970.998 268.221 970.673 268.221C970.394 268.221 970.208 268.221 970.115 268.221C962.259 268.128 956.17 266.431 951.848 263.131C947.525 259.784 945.363 255.02 945.363 248.838C945.363 242.702 947.525 238.008 951.848 234.754C956.17 231.5 962.329 229.827 970.324 229.734C970.417 229.734 970.603 229.734 970.882 229.734C971.207 229.734 971.509 229.734 971.788 229.734C972.114 229.734 972.299 229.734 972.346 229.734C980.387 229.734 986.639 231.384 991.101 234.684C995.61 237.938 997.864 242.656 997.864 248.838C997.864 255.067 995.61 259.854 991.101 263.201C986.639 266.548 980.364 268.221 972.276 268.221ZM971.997 260.97C975.948 260.97 979.202 260.528 981.758 259.645C984.315 258.715 986.221 257.367 987.476 255.601C988.731 253.788 989.358 251.534 989.358 248.838C989.358 246.189 988.731 244.004 987.476 242.284C986.221 240.518 984.315 239.216 981.758 238.38C979.202 237.497 975.948 237.055 971.997 237.055C971.904 237.055 971.672 237.055 971.3 237.055C970.975 237.055 970.766 237.055 970.673 237.055C966.815 237.055 963.654 237.52 961.19 238.449C958.727 239.333 956.891 240.634 955.682 242.354C954.52 244.074 953.939 246.235 953.939 248.838C953.939 251.488 954.52 253.695 955.682 255.462C956.891 257.228 958.727 258.576 961.19 259.506C963.7 260.435 966.861 260.923 970.673 260.97C970.766 260.97 970.975 260.97 971.3 260.97C971.672 260.97 971.904 260.97 971.997 260.97ZM967.465 281.05V215.79H975.693V281.05H967.465ZM1006.31 267.524V230.292H1015.03V254.834L1035.59 230.292H1043.54V267.524H1034.83V242.981L1014.33 267.524H1006.31ZM1078.9 267.524V254.834L1080.16 256.298H1069C1063.89 256.298 1059.87 255.229 1056.94 253.091C1054.06 250.906 1052.62 247.769 1052.62 243.679C1052.62 239.309 1054.15 235.986 1057.22 233.708C1060.33 231.431 1064.47 230.292 1069.63 230.292H1086.71V267.524H1078.9ZM1052.13 267.524L1062.17 253.3H1071.09L1061.47 267.524H1052.13ZM1078.9 252.045V235.312L1080.16 237.613H1069.91C1067.21 237.613 1065.12 238.124 1063.63 239.147C1062.19 240.123 1061.47 241.726 1061.47 243.957C1061.47 248.141 1064.19 250.233 1069.63 250.233H1080.16L1078.9 252.045Z" fill="#FC8A8A"/>
<rect x="1155.37" y="201.287" width="717.249" height="95.2874" rx="23.2408" fill="#E2E2FC"/>
<path d="M1204.13 273.334L1210.2 224.528H1219.68L1213.62 273.334H1204.13ZM1178.62 262.945V253.951H1224.77V262.945H1178.62ZM1186.08 273.334L1192.14 224.528H1201.62L1195.56 273.334H1186.08ZM1180.92 243.911V234.917H1227.14V243.911H1180.92Z" fill="#8A8AFC"/>
<path d="M1262.72 251.836V245.561H1282.94V251.836H1262.72ZM1267.81 229.734C1271.81 229.734 1275.34 230.571 1278.41 232.244C1281.48 233.871 1283.9 236.125 1285.66 239.007C1287.43 241.843 1288.31 245.143 1288.31 248.908C1288.31 252.626 1287.43 255.95 1285.66 258.878C1283.9 261.76 1281.48 264.038 1278.41 265.711C1275.34 267.338 1271.81 268.151 1267.81 268.151C1264.47 268.151 1261.4 267.593 1258.61 266.478C1255.82 265.362 1253.5 263.759 1251.64 261.667L1256.66 256.786C1258.15 258.227 1259.77 259.32 1261.54 260.063C1263.35 260.807 1265.33 261.179 1267.47 261.179C1269.98 261.179 1272.18 260.668 1274.09 259.645C1275.99 258.576 1277.51 257.112 1278.62 255.253C1279.74 253.393 1280.29 251.278 1280.29 248.908C1280.29 246.491 1279.74 244.376 1278.62 242.563C1277.51 240.704 1275.99 239.263 1274.09 238.24C1272.18 237.171 1269.98 236.637 1267.47 236.637C1265.33 236.637 1263.35 237.008 1261.54 237.752C1259.77 238.496 1258.15 239.611 1256.66 241.099L1251.64 236.218C1253.5 234.127 1255.82 232.523 1258.61 231.407C1261.4 230.292 1264.47 229.734 1267.81 229.734ZM1290.91 267.454L1291.32 260.133C1291.65 260.18 1291.95 260.226 1292.23 260.273C1292.51 260.319 1292.76 260.342 1293 260.342C1294.44 260.342 1295.55 259.901 1296.34 259.018C1297.13 258.134 1297.71 256.949 1298.09 255.462C1298.51 253.928 1298.78 252.231 1298.92 250.372C1299.11 248.466 1299.25 246.56 1299.34 244.655L1299.97 230.292H1330.09V267.524H1321.37V235.312L1323.4 237.682H1305.69L1307.57 235.242L1307.08 245.073C1306.94 248.373 1306.66 251.441 1306.24 254.276C1305.87 257.065 1305.27 259.506 1304.43 261.597C1303.64 263.689 1302.53 265.316 1301.08 266.478C1299.69 267.64 1297.9 268.221 1295.72 268.221C1295.02 268.221 1294.25 268.151 1293.42 268.012C1292.63 267.872 1291.79 267.686 1290.91 267.454ZM1359.19 268.012C1355.05 268.012 1351.43 267.198 1348.31 265.571C1345.24 263.898 1342.85 261.621 1341.13 258.739C1339.46 255.857 1338.62 252.58 1338.62 248.908C1338.62 245.189 1339.43 241.912 1341.06 239.077C1342.73 236.195 1345.01 233.941 1347.89 232.314C1350.82 230.687 1354.14 229.874 1357.86 229.874C1361.49 229.874 1364.72 230.664 1367.55 232.244C1370.39 233.824 1372.62 236.056 1374.25 238.937C1375.87 241.819 1376.69 245.212 1376.69 249.117C1376.69 249.489 1376.66 249.907 1376.62 250.372C1376.62 250.837 1376.6 251.278 1376.55 251.697H1345.52V245.91H1371.95L1368.53 247.723C1368.58 245.584 1368.14 243.702 1367.21 242.075C1366.28 240.448 1365 239.17 1363.37 238.24C1361.79 237.311 1359.95 236.846 1357.86 236.846C1355.72 236.846 1353.84 237.311 1352.22 238.24C1350.64 239.17 1349.38 240.471 1348.45 242.145C1347.57 243.772 1347.13 245.701 1347.13 247.932V249.326C1347.13 251.557 1347.64 253.533 1348.66 255.253C1349.68 256.972 1351.12 258.297 1352.98 259.227C1354.84 260.156 1356.98 260.621 1359.4 260.621C1361.49 260.621 1363.37 260.296 1365.04 259.645C1366.72 258.994 1368.21 257.972 1369.51 256.577L1374.18 261.946C1372.5 263.898 1370.39 265.409 1367.83 266.478C1365.32 267.5 1362.44 268.012 1359.19 268.012ZM1412.92 267.524L1399.47 249.675L1406.58 245.282L1423.17 267.524H1412.92ZM1386.22 267.524V230.292H1394.94V267.524H1386.22ZM1392.36 252.603V245.352H1404.98V252.603H1392.36ZM1407.42 249.954L1399.26 248.978L1412.92 230.292H1422.27L1407.42 249.954ZM1436.58 267.524V235.591L1438.6 237.682H1423.48V230.292H1458.34V237.682H1443.28L1445.3 235.591V267.524H1436.58ZM1485.3 268.012C1482.27 268.012 1479.51 267.315 1477 265.92C1474.54 264.526 1472.56 262.434 1471.07 259.645C1469.63 256.81 1468.91 253.231 1468.91 248.908C1468.91 244.539 1469.61 240.959 1471 238.171C1472.44 235.382 1474.4 233.313 1476.86 231.965C1479.32 230.571 1482.14 229.874 1485.3 229.874C1488.97 229.874 1492.2 230.664 1494.99 232.244C1497.82 233.824 1500.05 236.032 1501.68 238.868C1503.35 241.703 1504.19 245.05 1504.19 248.908C1504.19 252.766 1503.35 256.136 1501.68 259.018C1500.05 261.853 1497.82 264.061 1494.99 265.641C1492.2 267.222 1488.97 268.012 1485.3 268.012ZM1464.66 281.05V230.292H1472.96V239.077L1472.68 248.978L1473.37 258.878V281.05H1464.66ZM1484.32 260.551C1486.41 260.551 1488.27 260.087 1489.9 259.157C1491.57 258.227 1492.9 256.879 1493.87 255.113C1494.85 253.347 1495.34 251.278 1495.34 248.908C1495.34 246.491 1494.85 244.422 1493.87 242.702C1492.9 240.936 1491.57 239.588 1489.9 238.659C1488.27 237.729 1486.41 237.264 1484.32 237.264C1482.23 237.264 1480.35 237.729 1478.67 238.659C1477 239.588 1475.67 240.936 1474.7 242.702C1473.72 244.422 1473.23 246.491 1473.23 248.908C1473.23 251.278 1473.72 253.347 1474.7 255.113C1475.67 256.879 1477 258.227 1478.67 259.157C1480.35 260.087 1482.23 260.551 1484.32 260.551ZM1529.46 268.012C1525.65 268.012 1522.25 267.198 1519.28 265.571C1516.3 263.898 1513.96 261.621 1512.24 258.739C1510.52 255.857 1509.66 252.58 1509.66 248.908C1509.66 245.189 1510.52 241.912 1512.24 239.077C1513.96 236.195 1516.3 233.941 1519.28 232.314C1522.25 230.687 1525.65 229.874 1529.46 229.874C1533.32 229.874 1536.73 230.687 1539.71 232.314C1542.73 233.941 1545.08 236.172 1546.75 239.007C1548.47 241.843 1549.33 245.143 1549.33 248.908C1549.33 252.58 1548.47 255.857 1546.75 258.739C1545.08 261.621 1542.73 263.898 1539.71 265.571C1536.73 267.198 1533.32 268.012 1529.46 268.012ZM1529.46 260.551C1531.6 260.551 1533.5 260.087 1535.18 259.157C1536.85 258.227 1538.15 256.879 1539.08 255.113C1540.06 253.347 1540.54 251.278 1540.54 248.908C1540.54 246.491 1540.06 244.422 1539.08 242.702C1538.15 240.936 1536.85 239.588 1535.18 238.659C1533.5 237.729 1531.62 237.264 1529.53 237.264C1527.39 237.264 1525.48 237.729 1523.81 238.659C1522.18 239.588 1520.88 240.936 1519.91 242.702C1518.93 244.422 1518.44 246.491 1518.44 248.908C1518.44 251.278 1518.93 253.347 1519.91 255.113C1520.88 256.879 1522.18 258.227 1523.81 259.157C1525.48 260.087 1527.37 260.551 1529.46 260.551ZM1564.32 267.524V235.591L1566.34 237.682H1551.21V230.292H1586.07V237.682H1571.01L1573.03 235.591V267.524H1564.32ZM1608.12 268.012C1603.98 268.012 1600.36 267.198 1597.24 265.571C1594.17 263.898 1591.78 261.621 1590.06 258.739C1588.39 255.857 1587.55 252.58 1587.55 248.908C1587.55 245.189 1588.36 241.912 1589.99 239.077C1591.66 236.195 1593.94 233.941 1596.82 232.314C1599.75 230.687 1603.08 229.874 1606.79 229.874C1610.42 229.874 1613.65 230.664 1616.49 232.244C1619.32 233.824 1621.55 236.056 1623.18 238.937C1624.81 241.819 1625.62 245.212 1625.62 249.117C1625.62 249.489 1625.6 249.907 1625.55 250.372C1625.55 250.837 1625.53 251.278 1625.48 251.697H1594.45V245.91H1620.88L1617.46 247.723C1617.51 245.584 1617.07 243.702 1616.14 242.075C1615.21 240.448 1613.93 239.17 1612.3 238.24C1610.72 237.311 1608.89 236.846 1606.79 236.846C1604.66 236.846 1602.77 237.311 1601.15 238.24C1599.57 239.17 1598.31 240.471 1597.38 242.145C1596.5 243.772 1596.06 245.701 1596.06 247.932V249.326C1596.06 251.557 1596.57 253.533 1597.59 255.253C1598.61 256.972 1600.05 258.297 1601.91 259.227C1603.77 260.156 1605.91 260.621 1608.33 260.621C1610.42 260.621 1612.3 260.296 1613.98 259.645C1615.65 258.994 1617.14 257.972 1618.44 256.577L1623.11 261.946C1621.44 263.898 1619.32 265.409 1616.76 266.478C1614.25 267.5 1611.37 268.012 1608.12 268.012ZM1628.62 267.524L1645.01 246.189L1644.87 250.86L1629.25 230.292H1638.94L1649.89 244.934H1646.19L1657.21 230.292H1666.62L1650.86 250.86L1650.93 246.189L1667.25 267.524H1657.42L1645.91 251.976L1649.54 252.464L1638.24 267.524H1628.62ZM1673.49 267.524V230.292H1682.2V245.422H1700.96V230.292H1709.67V267.524H1700.96V252.812H1682.2V267.524H1673.49ZM1721.35 267.524V230.292H1730.07V254.834L1750.63 230.292H1758.58V267.524H1749.87V242.981L1729.37 267.524H1721.35ZM1797.01 267.524L1783.55 249.675L1790.67 245.282L1807.26 267.524H1797.01ZM1770.31 267.524V230.292H1779.02V267.524H1770.31ZM1776.44 252.603V245.352H1789.06V252.603H1776.44ZM1791.5 249.954L1783.34 248.978L1797.01 230.292H1806.35L1791.5 249.954ZM1835.32 267.524V259.994L1834.83 258.39V245.212C1834.83 242.656 1834.06 240.681 1832.53 239.286C1830.99 237.845 1828.67 237.125 1825.55 237.125C1823.46 237.125 1821.39 237.45 1819.35 238.101C1817.35 238.752 1815.65 239.658 1814.26 240.82L1810.84 234.475C1812.84 232.941 1815.21 231.803 1817.95 231.059C1820.74 230.269 1823.63 229.874 1826.6 229.874C1831.99 229.874 1836.15 231.175 1839.08 233.778C1842.06 236.335 1843.54 240.309 1843.54 245.701V267.524H1835.32ZM1823.6 268.012C1820.81 268.012 1818.37 267.547 1816.28 266.617C1814.19 265.641 1812.56 264.316 1811.4 262.643C1810.29 260.923 1809.73 258.994 1809.73 256.856C1809.73 254.764 1810.22 252.882 1811.19 251.209C1812.21 249.535 1813.86 248.211 1816.14 247.234C1818.42 246.258 1821.44 245.77 1825.21 245.77H1836.01V251.557H1825.83C1822.86 251.557 1820.86 252.045 1819.84 253.021C1818.81 253.951 1818.3 255.113 1818.3 256.508C1818.3 258.088 1818.93 259.343 1820.19 260.273C1821.44 261.202 1823.18 261.667 1825.42 261.667C1827.55 261.667 1829.46 261.179 1831.13 260.203C1832.85 259.227 1834.08 257.786 1834.83 255.88L1836.29 261.109C1835.46 263.294 1833.94 264.99 1831.76 266.199C1829.62 267.407 1826.9 268.012 1823.6 268.012Z" fill="#8A8AFC"/>
<rect x="229.376" y="336.575" width="604.249" height="95.2874" rx="23.2408" fill="#FCE2FC"/>
<path d="M278.135 408.621L284.201 359.816H293.683L287.617 408.621H278.135ZM252.617 398.233V389.238H298.773V398.233H252.617ZM260.077 408.621L266.143 359.816H275.625L269.559 408.621H260.077ZM254.918 379.198V370.204H301.144V379.198H254.918Z" fill="#FC8AFC"/>
<path d="M330.241 402.811V365.579H339.375L354.365 392.004H350.74L366.497 365.579H374.654L374.724 402.811H366.846V374.922L368.24 375.828L354.295 398.907H350.53L336.516 375.201L338.19 374.783V402.811H330.241ZM403.775 403.299C399.638 403.299 396.013 402.486 392.898 400.859C389.83 399.185 387.437 396.908 385.717 394.026C384.044 391.144 383.207 387.867 383.207 384.195C383.207 380.477 384.02 377.2 385.647 374.364C387.32 371.482 389.598 369.228 392.48 367.601C395.408 365.974 398.732 365.161 402.45 365.161C406.076 365.161 409.306 365.951 412.142 367.531C414.977 369.112 417.208 371.343 418.835 374.225C420.462 377.107 421.275 380.5 421.275 384.404C421.275 384.776 421.252 385.194 421.206 385.659C421.206 386.124 421.182 386.566 421.136 386.984H390.109V381.197H416.534L413.118 383.01C413.164 380.872 412.723 378.989 411.793 377.362C410.863 375.735 409.585 374.457 407.958 373.528C406.378 372.598 404.542 372.133 402.45 372.133C400.312 372.133 398.43 372.598 396.803 373.528C395.222 374.457 393.967 375.759 393.038 377.432C392.155 379.059 391.713 380.988 391.713 383.219V384.613C391.713 386.845 392.224 388.82 393.247 390.54C394.269 392.26 395.71 393.584 397.57 394.514C399.429 395.444 401.567 395.909 403.984 395.909C406.076 395.909 407.958 395.583 409.632 394.932C411.305 394.282 412.792 393.259 414.094 391.865L418.765 397.233C417.092 399.185 414.977 400.696 412.421 401.765C409.911 402.788 407.029 403.299 403.775 403.299ZM430.808 402.811V365.579H439.523V380.709H458.278V365.579H466.994V402.811H458.278V388.1H439.523V402.811H430.808ZM496.035 403.299C491.898 403.299 488.272 402.486 485.158 400.859C482.09 399.185 479.696 396.908 477.977 394.026C476.303 391.144 475.467 387.867 475.467 384.195C475.467 380.477 476.28 377.2 477.907 374.364C479.58 371.482 481.858 369.228 484.74 367.601C487.668 365.974 490.991 365.161 494.71 365.161C498.336 365.161 501.566 365.951 504.401 367.531C507.237 369.112 509.468 371.343 511.095 374.225C512.722 377.107 513.535 380.5 513.535 384.404C513.535 384.776 513.512 385.194 513.465 385.659C513.465 386.124 513.442 386.566 513.396 386.984H482.369V381.197H508.794L505.377 383.01C505.424 380.872 504.982 378.989 504.053 377.362C503.123 375.735 501.845 374.457 500.218 373.528C498.638 372.598 496.802 372.133 494.71 372.133C492.572 372.133 490.689 372.598 489.062 373.528C487.482 374.457 486.227 375.759 485.297 377.432C484.414 379.059 483.973 380.988 483.973 383.219V384.613C483.973 386.845 484.484 388.82 485.507 390.54C486.529 392.26 487.97 393.584 489.829 394.514C491.689 395.444 493.827 395.909 496.244 395.909C498.336 395.909 500.218 395.583 501.891 394.932C503.565 394.282 505.052 393.259 506.354 391.865L511.025 397.233C509.352 399.185 507.237 400.696 504.68 401.765C502.17 402.788 499.288 403.299 496.035 403.299ZM548.109 398.767V372.97H533.816L533.607 378.966C533.514 381.104 533.374 383.173 533.189 385.171C533.003 387.123 532.701 388.936 532.282 390.61C531.864 392.236 531.26 393.584 530.469 394.654C529.679 395.723 528.633 396.42 527.332 396.745L518.686 395.42C520.081 395.42 521.196 394.979 522.033 394.096C522.916 393.166 523.59 391.911 524.055 390.331C524.566 388.704 524.938 386.868 525.17 384.823C525.403 382.731 525.566 380.57 525.659 378.338L526.147 365.579H556.824V398.767H548.109ZM517.362 411.108V395.42H562.333V411.108H554.175V402.811H525.449V411.108H517.362ZM614.53 402.811L603.653 384.962L610.765 380.57L624.918 402.811H614.53ZM596.611 387.89V380.639H609.091V387.89H596.611ZM611.601 385.241L603.374 384.265L614.669 365.579H623.942L611.601 385.241ZM575.206 402.811H564.887L578.971 380.57L586.083 384.962L575.206 402.811ZM599.191 402.811H590.545V365.579H599.191V402.811ZM593.125 387.89H580.714V380.639H593.125V387.89ZM578.135 385.241L565.794 365.579H575.067L586.292 384.265L578.135 385.241ZM631.396 402.811V365.579H640.53L655.52 392.004H651.894L667.652 365.579H675.809L675.879 402.811H668V374.922L669.395 375.828L655.45 398.907H651.685L637.671 375.201L639.344 374.783V402.811H631.396ZM704.93 403.299C700.793 403.299 697.167 402.486 694.053 400.859C690.985 399.185 688.591 396.908 686.872 394.026C685.198 391.144 684.362 387.867 684.362 384.195C684.362 380.477 685.175 377.2 686.802 374.364C688.475 371.482 690.753 369.228 693.635 367.601C696.563 365.974 699.886 365.161 703.605 365.161C707.231 365.161 710.461 365.951 713.296 367.531C716.132 369.112 718.363 371.343 719.99 374.225C721.617 377.107 722.43 380.5 722.43 384.404C722.43 384.776 722.407 385.194 722.36 385.659C722.36 386.124 722.337 386.566 722.291 386.984H691.264V381.197H717.689L714.273 383.01C714.319 380.872 713.877 378.989 712.948 377.362C712.018 375.735 710.74 374.457 709.113 373.528C707.533 372.598 705.697 372.133 703.605 372.133C701.467 372.133 699.584 372.598 697.957 373.528C696.377 374.457 695.122 375.759 694.192 377.432C693.309 379.059 692.868 380.988 692.868 383.219V384.613C692.868 386.845 693.379 388.82 694.402 390.54C695.424 392.26 696.865 393.584 698.724 394.514C700.584 395.444 702.722 395.909 705.139 395.909C707.231 395.909 709.113 395.583 710.786 394.932C712.46 394.282 713.947 393.259 715.249 391.865L719.92 397.233C718.247 399.185 716.132 400.696 713.575 401.765C711.065 402.788 708.183 403.299 704.93 403.299ZM731.962 402.811V365.579H740.678V380.709H759.433V365.579H768.148V402.811H759.433V388.1H740.678V402.811H731.962ZM787.568 402.811V370.878L789.59 372.97H774.46V365.579H809.321V372.97H794.261L796.283 370.878V402.811H787.568Z" fill="#FC8AFC"/>
<rect x="872.875" y="336.575" width="222.249" height="95.2874" rx="23.2408" fill="#E2FCFC"/>
<path d="M921.635 408.621L927.7 359.816H937.183L931.117 408.621H921.635ZM896.116 398.233V389.238H942.272V398.233H896.116ZM903.577 408.621L909.642 359.816H919.125L913.059 408.621H903.577ZM898.417 379.198V370.204H944.643V379.198H898.417Z" fill="#7EE7E7"/>
<path d="M985.105 403.299C981.991 403.299 978.993 402.904 976.111 402.114C973.276 401.277 971.022 400.278 969.348 399.116L972.695 392.492C974.368 393.561 976.367 394.444 978.691 395.142C981.015 395.839 983.339 396.187 985.663 396.187C988.406 396.187 990.381 395.816 991.59 395.072C992.845 394.328 993.472 393.329 993.472 392.074C993.472 391.051 993.054 390.284 992.217 389.773C991.381 389.215 990.288 388.797 988.94 388.518C987.592 388.239 986.082 387.983 984.408 387.751C982.781 387.519 981.131 387.216 979.458 386.845C977.831 386.426 976.344 385.845 974.996 385.102C973.648 384.311 972.555 383.266 971.719 381.964C970.882 380.663 970.464 378.943 970.464 376.805C970.464 374.434 971.138 372.389 972.486 370.669C973.834 368.903 975.716 367.555 978.133 366.625C980.597 365.649 983.502 365.161 986.849 365.161C989.359 365.161 991.892 365.44 994.448 365.998C997.005 366.555 999.12 367.346 1000.79 368.368L997.446 374.992C995.68 373.923 993.891 373.202 992.078 372.83C990.311 372.412 988.545 372.203 986.779 372.203C984.129 372.203 982.154 372.598 980.852 373.388C979.597 374.178 978.97 375.178 978.97 376.386C978.97 377.502 979.388 378.338 980.225 378.896C981.062 379.454 982.154 379.896 983.502 380.221C984.85 380.546 986.337 380.825 987.964 381.058C989.637 381.244 991.288 381.546 992.914 381.964C994.541 382.382 996.029 382.963 997.377 383.707C998.771 384.404 999.887 385.404 1000.72 386.705C1001.56 388.007 1001.98 389.703 1001.98 391.795C1001.98 394.119 1001.28 396.141 999.887 397.861C998.539 399.581 996.61 400.929 994.1 401.905C991.59 402.834 988.592 403.299 985.105 403.299ZM1025.24 403.299C1021.66 403.299 1018.43 402.509 1015.55 400.929C1012.71 399.348 1010.48 397.14 1008.86 394.305C1007.23 391.423 1006.42 388.053 1006.42 384.195C1006.42 380.337 1007.23 376.99 1008.86 374.155C1010.48 371.32 1012.71 369.112 1015.55 367.531C1018.43 365.951 1021.66 365.161 1025.24 365.161C1028.45 365.161 1031.26 365.858 1033.68 367.253C1036.14 368.601 1038.07 370.669 1039.46 373.458C1040.91 376.247 1041.63 379.826 1041.63 384.195C1041.63 388.518 1040.88 392.097 1039.39 394.932C1037.95 397.721 1036 399.813 1033.54 401.207C1031.07 402.602 1028.31 403.299 1025.24 403.299ZM1026.22 395.839C1028.31 395.839 1030.19 395.374 1031.86 394.444C1033.54 393.515 1034.86 392.167 1035.84 390.4C1036.82 388.634 1037.3 386.566 1037.3 384.195C1037.3 381.778 1036.82 379.71 1035.84 377.99C1034.86 376.224 1033.54 374.876 1031.86 373.946C1030.19 373.016 1028.31 372.551 1026.22 372.551C1024.13 372.551 1022.24 373.016 1020.57 373.946C1018.94 374.876 1017.64 376.224 1016.67 377.99C1015.69 379.71 1015.2 381.778 1015.2 384.195C1015.2 386.566 1015.69 388.634 1016.67 390.4C1017.64 392.167 1018.94 393.515 1020.57 394.444C1022.24 395.374 1024.13 395.839 1026.22 395.839ZM1037.16 416.337V394.165L1037.86 384.265L1037.58 374.364V365.579H1045.88V416.337H1037.16ZM1057.28 402.811V351.077H1066V402.811H1057.28Z" fill="#7EE7E7"/>
<rect x="1134.37" y="336.575" width="556.249" height="95.2874" rx="23.2408" fill="#E2FCE2"/>
<path d="M1183.13 408.621L1189.2 359.816H1198.68L1192.62 408.621H1183.13ZM1157.62 398.233V389.238H1203.77V398.233H1157.62ZM1165.08 408.621L1171.14 359.816H1180.62L1174.56 408.621H1165.08ZM1159.92 379.198V370.204H1206.14V379.198H1159.92Z" fill="#77D977"/>
<path d="M1235.24 402.811V365.579H1270.94V402.811H1262.29V370.948L1264.31 372.97H1241.93L1243.96 370.948V402.811H1235.24ZM1299.64 403.299C1295.74 403.299 1292.25 402.486 1289.18 400.859C1286.16 399.185 1283.79 396.908 1282.07 394.026C1280.35 391.144 1279.49 387.867 1279.49 384.195C1279.49 380.477 1280.35 377.2 1282.07 374.364C1283.79 371.482 1286.16 369.228 1289.18 367.601C1292.25 365.974 1295.74 365.161 1299.64 365.161C1303.27 365.161 1306.45 365.905 1309.19 367.392C1311.98 368.833 1314.1 370.971 1315.54 373.806L1308.84 377.711C1307.73 375.945 1306.36 374.643 1304.73 373.806C1303.15 372.97 1301.43 372.551 1299.57 372.551C1297.43 372.551 1295.5 373.016 1293.78 373.946C1292.06 374.876 1290.72 376.224 1289.74 377.99C1288.76 379.71 1288.28 381.778 1288.28 384.195C1288.28 386.612 1288.76 388.704 1289.74 390.47C1290.72 392.19 1292.06 393.515 1293.78 394.444C1295.5 395.374 1297.43 395.839 1299.57 395.839C1301.43 395.839 1303.15 395.42 1304.73 394.584C1306.36 393.747 1307.73 392.446 1308.84 390.679L1315.54 394.584C1314.1 397.373 1311.98 399.534 1309.19 401.068C1306.45 402.555 1303.27 403.299 1299.64 403.299ZM1323.21 402.811V365.579H1331.93V390.122L1352.49 365.579H1360.44V402.811H1351.73V378.269L1331.23 402.811H1323.21ZM1366.66 402.811L1383.04 381.476L1382.9 386.147L1367.28 365.579H1376.98L1387.92 380.221H1384.23L1395.24 365.579H1404.66L1388.9 386.147L1388.97 381.476L1405.28 402.811H1395.45L1383.95 387.263L1387.57 387.751L1376.28 402.811H1366.66ZM1426.89 403.299C1423.08 403.299 1419.68 402.486 1416.71 400.859C1413.73 399.185 1411.39 396.908 1409.67 394.026C1407.95 391.144 1407.09 387.867 1407.09 384.195C1407.09 380.477 1407.95 377.2 1409.67 374.364C1411.39 371.482 1413.73 369.228 1416.71 367.601C1419.68 365.974 1423.08 365.161 1426.89 365.161C1430.75 365.161 1434.16 365.974 1437.14 367.601C1440.16 369.228 1442.51 371.459 1444.18 374.295C1445.9 377.13 1446.76 380.43 1446.76 384.195C1446.76 387.867 1445.9 391.144 1444.18 394.026C1442.51 396.908 1440.16 399.185 1437.14 400.859C1434.16 402.486 1430.75 403.299 1426.89 403.299ZM1426.89 395.839C1429.03 395.839 1430.93 395.374 1432.61 394.444C1434.28 393.515 1435.58 392.167 1436.51 390.4C1437.49 388.634 1437.97 386.566 1437.97 384.195C1437.97 381.778 1437.49 379.71 1436.51 377.99C1435.58 376.224 1434.28 374.876 1432.61 373.946C1430.93 373.016 1429.05 372.551 1426.96 372.551C1424.82 372.551 1422.91 373.016 1421.24 373.946C1419.61 374.876 1418.31 376.224 1417.34 377.99C1416.36 379.71 1415.87 381.778 1415.87 384.195C1415.87 386.566 1416.36 388.634 1417.34 390.4C1418.31 392.167 1419.61 393.515 1421.24 394.444C1422.91 395.374 1424.8 395.839 1426.89 395.839ZM1449.52 402.741L1449.94 395.42C1450.27 395.467 1450.57 395.513 1450.85 395.56C1451.13 395.606 1451.38 395.63 1451.61 395.63C1453.06 395.63 1454.17 395.188 1454.96 394.305C1455.75 393.422 1456.33 392.236 1456.7 390.749C1457.12 389.215 1457.4 387.519 1457.54 385.659C1457.73 383.754 1457.87 381.848 1457.96 379.942L1458.59 365.579H1488.71V402.811H1479.99V370.599L1482.01 372.97H1464.3L1466.19 370.53L1465.7 380.36C1465.56 383.661 1465.28 386.728 1464.86 389.564C1464.49 392.353 1463.89 394.793 1463.05 396.885C1462.26 398.976 1461.14 400.603 1459.7 401.765C1458.31 402.927 1456.52 403.508 1454.33 403.508C1453.64 403.508 1452.87 403.439 1452.03 403.299C1451.24 403.16 1450.41 402.974 1449.52 402.741ZM1517.04 403.299C1513.23 403.299 1509.83 402.486 1506.86 400.859C1503.88 399.185 1501.54 396.908 1499.82 394.026C1498.1 391.144 1497.24 387.867 1497.24 384.195C1497.24 380.477 1498.1 377.2 1499.82 374.364C1501.54 371.482 1503.88 369.228 1506.86 367.601C1509.83 365.974 1513.23 365.161 1517.04 365.161C1520.9 365.161 1524.31 365.974 1527.29 367.601C1530.31 369.228 1532.66 371.459 1534.33 374.295C1536.05 377.13 1536.91 380.43 1536.91 384.195C1536.91 387.867 1536.05 391.144 1534.33 394.026C1532.66 396.908 1530.31 399.185 1527.29 400.859C1524.31 402.486 1520.9 403.299 1517.04 403.299ZM1517.04 395.839C1519.18 395.839 1521.08 395.374 1522.76 394.444C1524.43 393.515 1525.73 392.167 1526.66 390.4C1527.64 388.634 1528.12 386.566 1528.12 384.195C1528.12 381.778 1527.64 379.71 1526.66 377.99C1525.73 376.224 1524.43 374.876 1522.76 373.946C1521.08 373.016 1519.2 372.551 1517.11 372.551C1514.97 372.551 1513.06 373.016 1511.39 373.946C1509.76 374.876 1508.46 376.224 1507.49 377.99C1506.51 379.71 1506.02 381.778 1506.02 384.195C1506.02 386.566 1506.51 388.634 1507.49 390.4C1508.46 392.167 1509.76 393.515 1511.39 394.444C1513.06 395.374 1514.95 395.839 1517.04 395.839ZM1545.52 402.811V365.579H1574.1V372.97H1552.21L1554.23 371.018V402.811H1545.52ZM1580.45 402.811V365.579H1589.16V390.122L1609.73 365.579H1617.68V402.811H1608.96V378.269L1588.47 402.811H1580.45ZM1653.04 402.811V390.122L1654.29 391.586H1643.14C1638.03 391.586 1634 390.517 1631.08 388.378C1628.19 386.194 1626.75 383.056 1626.75 378.966C1626.75 374.597 1628.29 371.273 1631.36 368.996C1634.47 366.718 1638.61 365.579 1643.77 365.579H1660.85V402.811H1653.04ZM1626.27 402.811L1636.31 388.588H1645.23L1635.61 402.811H1626.27ZM1653.04 387.333V370.599L1654.29 372.9H1644.04C1641.35 372.9 1639.26 373.411 1637.77 374.434C1636.33 375.41 1635.61 377.014 1635.61 379.245C1635.61 383.428 1638.33 385.52 1643.77 385.52H1654.29L1653.04 387.333Z" fill="#77D977"/>
<rect x="103.126" y="471.862" width="875.249" height="95.2874" rx="23.2408" fill="#E2E2FC"/>
<path d="M151.885 543.909L157.951 495.103H167.433L161.367 543.909H151.885ZM126.366 533.52V524.526H172.523V533.52H126.366ZM133.827 543.909L139.893 495.103H149.375L143.309 543.909H133.827ZM128.667 514.486V505.492H174.893V514.486H128.667Z" fill="#8A8AFC"/>
<path d="M230.695 538.098L217.238 520.249L224.35 515.857L240.944 538.098H230.695ZM203.991 538.098V500.867H212.706V538.098H203.991ZM210.127 523.178V515.927H222.746V523.178H210.127ZM225.187 520.528L217.029 519.552L230.695 500.867H240.037L225.187 520.528ZM262.459 538.586C258.648 538.586 255.255 537.773 252.28 536.146C249.305 534.473 246.958 532.195 245.238 529.313C243.518 526.431 242.658 523.155 242.658 519.482C242.658 515.764 243.518 512.487 245.238 509.652C246.958 506.77 249.305 504.515 252.28 502.889C255.255 501.262 258.648 500.448 262.459 500.448C266.317 500.448 269.734 501.262 272.708 502.889C275.73 504.515 278.077 506.747 279.75 509.582C281.47 512.417 282.33 515.717 282.33 519.482C282.33 523.155 281.47 526.431 279.75 529.313C278.077 532.195 275.73 534.473 272.708 536.146C269.734 537.773 266.317 538.586 262.459 538.586ZM262.459 531.126C264.597 531.126 266.503 530.661 268.176 529.732C269.85 528.802 271.151 527.454 272.081 525.688C273.057 523.921 273.545 521.853 273.545 519.482C273.545 517.065 273.057 514.997 272.081 513.277C271.151 511.511 269.85 510.163 268.176 509.233C266.503 508.304 264.621 507.839 262.529 507.839C260.391 507.839 258.485 508.304 256.812 509.233C255.185 510.163 253.883 511.511 252.907 513.277C251.931 514.997 251.443 517.065 251.443 519.482C251.443 521.853 251.931 523.921 252.907 525.688C253.883 527.454 255.185 528.802 256.812 529.732C258.485 530.661 260.368 531.126 262.459 531.126ZM290.94 538.098V500.867H300.073L315.064 527.291H311.438L327.195 500.867H335.353L335.423 538.098H327.544V510.209L328.939 511.116L314.994 534.194H311.229L297.215 510.488L298.888 510.07V538.098H290.94ZM347.113 538.098V500.867H382.811V538.098H374.165V506.235L376.187 508.257H353.806L355.828 506.235V538.098H347.113ZM413.256 513.138C418.043 513.138 421.692 514.207 424.202 516.345C426.712 518.483 427.967 521.504 427.967 525.409C427.967 529.453 426.573 532.614 423.784 534.891C420.995 537.122 417.067 538.215 412.001 538.168L394.57 538.098V500.867H403.286V513.068L413.256 513.138ZM411.234 531.754C413.79 531.8 415.743 531.266 417.091 530.15C418.439 529.034 419.113 527.408 419.113 525.269C419.113 523.131 418.439 521.597 417.091 520.668C415.789 519.692 413.837 519.18 411.234 519.134L403.286 519.064V531.684L411.234 531.754ZM435.627 538.098V500.867H444.343V515.299H455.429V523.178H444.343V538.098H435.627ZM469.652 538.586C465.934 538.586 462.61 537.773 459.682 536.146C456.8 534.473 454.522 532.195 452.849 529.313C451.176 526.431 450.339 523.155 450.339 519.482C450.339 515.764 451.176 512.464 452.849 509.582C454.522 506.7 456.8 504.469 459.682 502.889C462.61 501.262 465.934 500.448 469.652 500.448C473.417 500.448 476.74 501.262 479.622 502.889C482.551 504.469 484.852 506.7 486.525 509.582C488.198 512.464 489.035 515.764 489.035 519.482C489.035 523.155 488.198 526.455 486.525 529.383C484.852 532.265 482.551 534.519 479.622 536.146C476.74 537.773 473.417 538.586 469.652 538.586ZM469.652 531.196C471.744 531.196 473.58 530.708 475.16 529.732C476.787 528.756 478.065 527.408 478.995 525.688C479.924 523.968 480.389 521.9 480.389 519.482C480.389 517.065 479.924 514.997 478.995 513.277C478.065 511.511 476.787 510.163 475.16 509.233C473.58 508.304 471.767 507.839 469.722 507.839C467.677 507.839 465.841 508.304 464.214 509.233C462.587 510.163 461.309 511.511 460.379 513.277C459.449 514.997 458.985 517.065 458.985 519.482C458.985 521.9 459.449 523.968 460.379 525.688C461.309 527.408 462.587 528.756 464.214 529.732C465.841 530.708 467.653 531.196 469.652 531.196ZM503.965 538.098V506.166L505.987 508.257H490.857V500.867H525.719V508.257H510.659L512.681 506.166V538.098H503.965ZM547.767 538.586C543.63 538.586 540.005 537.773 536.891 536.146C533.823 534.473 531.429 532.195 529.709 529.313C528.036 526.431 527.199 523.155 527.199 519.482C527.199 515.764 528.013 512.487 529.64 509.652C531.313 506.77 533.59 504.515 536.472 502.889C539.401 501.262 542.724 500.448 546.443 500.448C550.068 500.448 553.299 501.238 556.134 502.819C558.969 504.399 561.201 506.63 562.827 509.512C564.454 512.394 565.268 515.787 565.268 519.692C565.268 520.064 565.244 520.482 565.198 520.947C565.198 521.411 565.175 521.853 565.128 522.271H534.102V516.484H560.527L557.11 518.297C557.157 516.159 556.715 514.277 555.785 512.65C554.856 511.023 553.578 509.745 551.951 508.815C550.37 507.885 548.534 507.421 546.443 507.421C544.304 507.421 542.422 507.885 540.795 508.815C539.215 509.745 537.96 511.046 537.03 512.719C536.147 514.346 535.705 516.275 535.705 518.506V519.901C535.705 522.132 536.217 524.107 537.239 525.827C538.262 527.547 539.703 528.872 541.562 529.801C543.421 530.731 545.559 531.196 547.977 531.196C550.068 531.196 551.951 530.87 553.624 530.22C555.297 529.569 556.785 528.546 558.086 527.152L562.758 532.521C561.084 534.473 558.969 535.983 556.413 537.053C553.903 538.075 551.021 538.586 547.767 538.586ZM595.438 538.586C592.417 538.586 589.651 537.889 587.141 536.495C584.677 535.1 582.702 533.009 581.215 530.22C579.774 527.384 579.053 523.805 579.053 519.482C579.053 515.113 579.75 511.534 581.145 508.745C582.586 505.956 584.538 503.888 587.001 502.54C589.465 501.145 592.277 500.448 595.438 500.448C599.11 500.448 602.34 501.238 605.129 502.819C607.965 504.399 610.196 506.607 611.823 509.442C613.496 512.278 614.333 515.625 614.333 519.482C614.333 523.34 613.496 526.71 611.823 529.592C610.196 532.428 607.965 534.636 605.129 536.216C602.34 537.796 599.11 538.586 595.438 538.586ZM574.8 551.625V500.867H583.097V509.652L582.818 519.552L583.515 529.453V551.625H574.8ZM594.462 531.126C596.553 531.126 598.413 530.661 600.04 529.732C601.713 528.802 603.038 527.454 604.014 525.688C604.99 523.921 605.478 521.853 605.478 519.482C605.478 517.065 604.99 514.997 604.014 513.277C603.038 511.511 601.713 510.163 600.04 509.233C598.413 508.304 596.553 507.839 594.462 507.839C592.37 507.839 590.488 508.304 588.814 509.233C587.141 510.163 585.816 511.511 584.84 513.277C583.864 514.997 583.376 517.065 583.376 519.482C583.376 521.853 583.864 523.921 584.84 525.688C585.816 527.454 587.141 528.802 588.814 529.732C590.488 530.661 592.37 531.126 594.462 531.126ZM623.007 538.098V500.867H631.722V515.996H650.477V500.867H659.193V538.098H650.477V523.387H631.722V538.098H623.007ZM708.453 538.098V500.867H717.168V538.098H708.453ZM689.001 513.138C693.788 513.138 697.414 514.207 699.877 516.345C702.387 518.483 703.642 521.504 703.642 525.409C703.642 529.453 702.248 532.614 699.459 534.891C696.717 537.122 692.812 538.215 687.746 538.168L670.873 538.098V500.867H679.588V513.068L689.001 513.138ZM686.979 531.754C689.535 531.8 691.487 531.266 692.835 530.15C694.183 529.034 694.857 527.408 694.857 525.269C694.857 523.131 694.183 521.597 692.835 520.668C691.534 519.692 689.582 519.18 686.979 519.134L679.588 519.064V531.684L686.979 531.754ZM746.245 538.586C742.108 538.586 738.482 537.773 735.368 536.146C732.3 534.473 729.907 532.195 728.187 529.313C726.513 526.431 725.677 523.155 725.677 519.482C725.677 515.764 726.49 512.487 728.117 509.652C729.79 506.77 732.068 504.515 734.95 502.889C737.878 501.262 741.202 500.448 744.92 500.448C748.546 500.448 751.776 501.238 754.612 502.819C757.447 504.399 759.678 506.63 761.305 509.512C762.932 512.394 763.745 515.787 763.745 519.692C763.745 520.064 763.722 520.482 763.675 520.947C763.675 521.411 763.652 521.853 763.606 522.271H732.579V516.484H759.004L755.588 518.297C755.634 516.159 755.193 514.277 754.263 512.65C753.333 511.023 752.055 509.745 750.428 508.815C748.848 507.885 747.012 507.421 744.92 507.421C742.782 507.421 740.899 507.885 739.273 508.815C737.692 509.745 736.437 511.046 735.508 512.719C734.624 514.346 734.183 516.275 734.183 518.506V519.901C734.183 522.132 734.694 524.107 735.717 525.827C736.739 527.547 738.18 528.872 740.04 529.801C741.899 530.731 744.037 531.196 746.454 531.196C748.546 531.196 750.428 530.87 752.102 530.22C753.775 529.569 755.262 528.546 756.564 527.152L761.235 532.521C759.562 534.473 757.447 535.983 754.89 537.053C752.38 538.075 749.499 538.586 746.245 538.586ZM809.489 538.586C805.585 538.586 802.099 537.773 799.031 536.146C796.009 534.473 793.639 532.195 791.919 529.313C790.199 526.431 789.339 523.155 789.339 519.482C789.339 515.764 790.199 512.487 791.919 509.652C793.639 506.77 796.009 504.515 799.031 502.889C802.099 501.262 805.585 500.448 809.489 500.448C813.115 500.448 816.299 501.192 819.041 502.679C821.83 504.12 823.945 506.258 825.386 509.094L818.692 512.998C817.577 511.232 816.206 509.931 814.579 509.094C812.998 508.257 811.279 507.839 809.419 507.839C807.281 507.839 805.352 508.304 803.632 509.233C801.913 510.163 800.565 511.511 799.589 513.277C798.612 514.997 798.124 517.065 798.124 519.482C798.124 521.9 798.612 523.991 799.589 525.758C800.565 527.477 801.913 528.802 803.632 529.732C805.352 530.661 807.281 531.126 809.419 531.126C811.279 531.126 812.998 530.708 814.579 529.871C816.206 529.034 817.577 527.733 818.692 525.967L825.386 529.871C823.945 532.66 821.83 534.821 819.041 536.355C816.299 537.843 813.115 538.586 809.489 538.586ZM849.875 538.586C845.738 538.586 842.113 537.773 838.999 536.146C835.931 534.473 833.537 532.195 831.817 529.313C830.144 526.431 829.307 523.155 829.307 519.482C829.307 515.764 830.121 512.487 831.747 509.652C833.421 506.77 835.698 504.515 838.58 502.889C841.509 501.262 844.832 500.448 848.551 500.448C852.176 500.448 855.407 501.238 858.242 502.819C861.077 504.399 863.308 506.63 864.935 509.512C866.562 512.394 867.376 515.787 867.376 519.692C867.376 520.064 867.352 520.482 867.306 520.947C867.306 521.411 867.283 521.853 867.236 522.271H836.21V516.484H862.635L859.218 518.297C859.265 516.159 858.823 514.277 857.893 512.65C856.964 511.023 855.685 509.745 854.059 508.815C852.478 507.885 850.642 507.421 848.551 507.421C846.412 507.421 844.53 507.885 842.903 508.815C841.323 509.745 840.068 511.046 839.138 512.719C838.255 514.346 837.813 516.275 837.813 518.506V519.901C837.813 522.132 838.325 524.107 839.347 525.827C840.37 527.547 841.811 528.872 843.67 529.801C845.529 530.731 847.667 531.196 850.084 531.196C852.176 531.196 854.059 530.87 855.732 530.22C857.405 529.569 858.893 528.546 860.194 527.152L864.866 532.521C863.192 534.473 861.077 535.983 858.521 537.053C856.011 538.075 853.129 538.586 849.875 538.586ZM883.217 538.098V506.166L885.239 508.257H870.11V500.867H904.971V508.257H889.911L891.933 506.166V538.098H883.217ZM911.293 538.098V500.867H920.008V525.409L940.576 500.867H948.524V538.098H939.809V513.556L919.311 538.098H911.293Z" fill="#8A8AFC"/>
<rect x="1017.62" y="471.862" width="799.249" height="95.2874" rx="23.2408" fill="#FCE2E2"/>
<path d="M1066.38 543.909L1072.45 495.103H1081.93L1075.87 543.909H1066.38ZM1040.87 533.52V524.526H1087.02V533.52H1040.87ZM1048.33 543.909L1054.39 495.103H1063.87L1057.81 543.909H1048.33ZM1043.17 514.486V505.492H1089.39V514.486H1043.17Z" fill="#FC8A8A"/>
<path d="M1144.01 534.054V508.257H1129.72L1129.51 514.253C1129.41 516.391 1129.27 518.46 1129.09 520.459C1128.9 522.411 1128.6 524.224 1128.18 525.897C1127.76 527.524 1127.16 528.872 1126.37 529.941C1125.58 531.01 1124.53 531.707 1123.23 532.033L1114.59 530.708C1115.98 530.708 1117.1 530.266 1117.93 529.383C1118.82 528.453 1119.49 527.198 1119.95 525.618C1120.47 523.991 1120.84 522.155 1121.07 520.11C1121.3 518.018 1121.47 515.857 1121.56 513.626L1122.05 500.867H1152.72V534.054H1144.01ZM1113.26 546.395V530.708H1158.23V546.395H1150.07V538.098H1121.35V546.395H1113.26ZM1166.02 538.098V500.867H1174.73V525.409L1195.3 500.867H1203.25V538.098H1194.53V513.556L1174.03 538.098H1166.02ZM1226.28 538.726C1223.44 538.726 1220.63 538.401 1217.84 537.75C1215.1 537.053 1212.61 536.076 1210.38 534.821L1212.82 528.337C1214.63 529.36 1216.68 530.15 1218.96 530.708C1221.23 531.266 1223.51 531.544 1225.79 531.544C1227.74 531.544 1229.42 531.359 1230.81 530.987C1232.2 530.568 1233.27 529.964 1234.02 529.174C1234.81 528.384 1235.2 527.477 1235.2 526.455C1235.2 524.967 1234.55 523.852 1233.25 523.108C1232 522.318 1230.18 521.923 1227.81 521.923H1220.63V516.066H1227.11C1228.6 516.066 1229.86 515.903 1230.88 515.578C1231.95 515.253 1232.76 514.765 1233.32 514.114C1233.88 513.463 1234.16 512.696 1234.16 511.813C1234.16 510.93 1233.81 510.163 1233.11 509.512C1232.46 508.815 1231.51 508.304 1230.25 507.978C1229 507.606 1227.49 507.421 1225.72 507.421C1223.86 507.421 1221.93 507.653 1219.93 508.118C1217.98 508.583 1215.98 509.257 1213.94 510.14L1211.71 503.725C1214.08 502.656 1216.38 501.843 1218.61 501.285C1220.89 500.681 1223.14 500.355 1225.37 500.309C1228.76 500.169 1231.79 500.518 1234.44 501.355C1237.08 502.191 1239.18 503.4 1240.71 504.98C1242.24 506.561 1243.01 508.42 1243.01 510.558C1243.01 512.324 1242.45 513.928 1241.34 515.369C1240.27 516.763 1238.78 517.856 1236.88 518.646C1235.02 519.436 1232.88 519.831 1230.46 519.831L1230.74 517.949C1234.88 517.949 1238.13 518.785 1240.5 520.459C1242.87 522.085 1244.06 524.317 1244.06 527.152C1244.06 529.43 1243.29 531.452 1241.76 533.218C1240.22 534.938 1238.11 536.286 1235.41 537.262C1232.76 538.238 1229.72 538.726 1226.28 538.726ZM1275.62 538.098V530.568L1275.13 528.965V515.787C1275.13 513.231 1274.37 511.255 1272.83 509.861C1271.3 508.42 1268.98 507.699 1265.86 507.699C1263.77 507.699 1261.7 508.025 1259.66 508.676C1257.66 509.326 1255.96 510.233 1254.57 511.395L1251.15 505.05C1253.15 503.516 1255.52 502.377 1258.26 501.634C1261.05 500.843 1263.93 500.448 1266.91 500.448C1272.3 500.448 1276.46 501.75 1279.39 504.353C1282.36 506.909 1283.85 510.883 1283.85 516.275V538.098H1275.62ZM1263.91 538.586C1261.12 538.586 1258.68 538.122 1256.59 537.192C1254.5 536.216 1252.87 534.891 1251.71 533.218C1250.59 531.498 1250.03 529.569 1250.03 527.431C1250.03 525.339 1250.52 523.457 1251.5 521.783C1252.52 520.11 1254.17 518.785 1256.45 517.809C1258.73 516.833 1261.75 516.345 1265.51 516.345H1276.32V522.132H1266.14C1263.17 522.132 1261.17 522.62 1260.14 523.596C1259.12 524.526 1258.61 525.688 1258.61 527.082C1258.61 528.663 1259.24 529.918 1260.49 530.847C1261.75 531.777 1263.49 532.242 1265.72 532.242C1267.86 532.242 1269.77 531.754 1271.44 530.778C1273.16 529.801 1274.39 528.36 1275.13 526.455L1276.6 531.684C1275.76 533.869 1274.25 535.565 1272.07 536.774C1269.93 537.982 1267.21 538.586 1263.91 538.586ZM1294.63 538.098V500.867H1303.35V525.409L1323.92 500.867H1331.87V538.098H1323.15V513.556L1302.65 538.098H1294.63ZM1312.69 496.474C1308.97 496.474 1306.12 495.614 1304.12 493.894C1302.12 492.128 1301.1 489.572 1301.05 486.225H1306.84C1306.88 487.898 1307.39 489.223 1308.37 490.199C1309.39 491.175 1310.81 491.663 1312.62 491.663C1314.39 491.663 1315.78 491.175 1316.81 490.199C1317.88 489.223 1318.43 487.898 1318.48 486.225H1324.41C1324.36 489.572 1323.31 492.128 1321.27 493.894C1319.27 495.614 1316.41 496.474 1312.69 496.474ZM1343.59 538.098V500.867H1352.31V515.996H1371.06V500.867H1379.78V538.098H1371.06V523.387H1352.31V538.098H1343.59ZM1405.29 538.029L1405.71 530.708C1406.03 530.754 1406.33 530.801 1406.61 530.847C1406.89 530.894 1407.15 530.917 1407.38 530.917C1408.82 530.917 1409.94 530.475 1410.73 529.592C1411.52 528.709 1412.1 527.524 1412.47 526.036C1412.89 524.503 1413.17 522.806 1413.31 520.947C1413.49 519.041 1413.63 517.135 1413.72 515.229L1414.35 500.867H1444.47V538.098H1435.76V505.887L1437.78 508.257H1420.07L1421.95 505.817L1421.46 515.648C1421.32 518.948 1421.04 522.016 1420.63 524.851C1420.25 527.64 1419.65 530.08 1418.81 532.172C1418.02 534.264 1416.91 535.891 1415.47 537.053C1414.07 538.215 1412.28 538.796 1410.1 538.796C1409.4 538.796 1408.63 538.726 1407.8 538.586C1407.01 538.447 1406.17 538.261 1405.29 538.029ZM1472.8 538.586C1468.99 538.586 1465.6 537.773 1462.62 536.146C1459.65 534.473 1457.3 532.195 1455.58 529.313C1453.86 526.431 1453 523.155 1453 519.482C1453 515.764 1453.86 512.487 1455.58 509.652C1457.3 506.77 1459.65 504.515 1462.62 502.889C1465.6 501.262 1468.99 500.448 1472.8 500.448C1476.66 500.448 1480.08 501.262 1483.05 502.889C1486.07 504.515 1488.42 506.747 1490.09 509.582C1491.81 512.417 1492.67 515.717 1492.67 519.482C1492.67 523.155 1491.81 526.431 1490.09 529.313C1488.42 532.195 1486.07 534.473 1483.05 536.146C1480.08 537.773 1476.66 538.586 1472.8 538.586ZM1472.8 531.126C1474.94 531.126 1476.85 530.661 1478.52 529.732C1480.19 528.802 1481.49 527.454 1482.42 525.688C1483.4 523.921 1483.89 521.853 1483.89 519.482C1483.89 517.065 1483.4 514.997 1482.42 513.277C1481.49 511.511 1480.19 510.163 1478.52 509.233C1476.85 508.304 1474.96 507.839 1472.87 507.839C1470.73 507.839 1468.83 508.304 1467.15 509.233C1465.53 510.163 1464.23 511.511 1463.25 513.277C1462.27 514.997 1461.79 517.065 1461.79 519.482C1461.79 521.853 1462.27 523.921 1463.25 525.688C1464.23 527.454 1465.53 528.802 1467.15 529.732C1468.83 530.661 1470.71 531.126 1472.8 531.126ZM1501.28 538.098V500.867H1529.87V508.257H1507.98L1510 506.305V538.098H1501.28ZM1551.17 538.586C1547.36 538.586 1543.97 537.773 1540.99 536.146C1538.02 534.473 1535.67 532.195 1533.95 529.313C1532.23 526.431 1531.37 523.155 1531.37 519.482C1531.37 515.764 1532.23 512.487 1533.95 509.652C1535.67 506.77 1538.02 504.515 1540.99 502.889C1543.97 501.262 1547.36 500.448 1551.17 500.448C1555.03 500.448 1558.45 501.262 1561.42 502.889C1564.44 504.515 1566.79 506.747 1568.46 509.582C1570.18 512.417 1571.04 515.717 1571.04 519.482C1571.04 523.155 1570.18 526.431 1568.46 529.313C1566.79 532.195 1564.44 534.473 1561.42 536.146C1558.45 537.773 1555.03 538.586 1551.17 538.586ZM1551.17 531.126C1553.31 531.126 1555.22 530.661 1556.89 529.732C1558.56 528.802 1559.86 527.454 1560.79 525.688C1561.77 523.921 1562.26 521.853 1562.26 519.482C1562.26 517.065 1561.77 514.997 1560.79 513.277C1559.86 511.511 1558.56 510.163 1556.89 509.233C1555.22 508.304 1553.33 507.839 1551.24 507.839C1549.1 507.839 1547.2 508.304 1545.52 509.233C1543.9 510.163 1542.6 511.511 1541.62 513.277C1540.64 514.997 1540.16 517.065 1540.16 519.482C1540.16 521.853 1540.64 523.921 1541.62 525.688C1542.6 527.454 1543.9 528.802 1545.52 529.732C1547.2 530.661 1549.08 531.126 1551.17 531.126ZM1586.03 538.098V506.166L1588.05 508.257H1572.92V500.867H1607.78V508.257H1592.72L1594.75 506.166V538.098H1586.03ZM1614.11 538.098V500.867H1622.82V525.409L1643.39 500.867H1651.34V538.098H1642.62V513.556L1622.12 538.098H1614.11ZM1663.06 538.098V500.867H1698.76V538.098H1690.11V506.235L1692.13 508.257H1669.75L1671.78 506.235V538.098H1663.06ZM1727.11 538.586C1723.3 538.586 1719.91 537.773 1716.93 536.146C1713.96 534.473 1711.61 532.195 1709.89 529.313C1708.17 526.431 1707.31 523.155 1707.31 519.482C1707.31 515.764 1708.17 512.487 1709.89 509.652C1711.61 506.77 1713.96 504.515 1716.93 502.889C1719.91 501.262 1723.3 500.448 1727.11 500.448C1730.97 500.448 1734.39 501.262 1737.36 502.889C1740.38 504.515 1742.73 506.747 1744.4 509.582C1746.12 512.417 1746.98 515.717 1746.98 519.482C1746.98 523.155 1746.12 526.431 1744.4 529.313C1742.73 532.195 1740.38 534.473 1737.36 536.146C1734.39 537.773 1730.97 538.586 1727.11 538.586ZM1727.11 531.126C1729.25 531.126 1731.16 530.661 1732.83 529.732C1734.5 528.802 1735.8 527.454 1736.73 525.688C1737.71 523.921 1738.2 521.853 1738.2 519.482C1738.2 517.065 1737.71 514.997 1736.73 513.277C1735.8 511.511 1734.5 510.163 1732.83 509.233C1731.16 508.304 1729.27 507.839 1727.18 507.839C1725.04 507.839 1723.14 508.304 1721.46 509.233C1719.84 510.163 1718.54 511.511 1717.56 513.277C1716.58 514.997 1716.1 517.065 1716.1 519.482C1716.1 521.853 1716.58 523.921 1717.56 525.688C1718.54 527.454 1719.84 528.802 1721.46 529.732C1723.14 530.661 1725.02 531.126 1727.11 531.126ZM1755.59 538.098V500.867H1773.79C1778.3 500.867 1781.83 501.703 1784.39 503.377C1786.99 505.05 1788.29 507.421 1788.29 510.488C1788.29 513.51 1787.08 515.88 1784.67 517.6C1782.25 519.273 1779.04 520.11 1775.05 520.11L1776.09 517.949C1780.6 517.949 1783.95 518.785 1786.13 520.459C1788.36 522.085 1789.48 524.479 1789.48 527.64C1789.48 530.94 1788.25 533.52 1785.78 535.379C1783.32 537.192 1779.58 538.098 1774.56 538.098H1755.59ZM1763.89 531.754H1773.86C1776.23 531.754 1778.02 531.382 1779.23 530.638C1780.44 529.848 1781.04 528.663 1781.04 527.082C1781.04 525.409 1780.48 524.177 1779.37 523.387C1778.25 522.597 1776.51 522.202 1774.14 522.202H1763.89V531.754ZM1763.89 516.415H1773.02C1775.25 516.415 1776.93 516.02 1778.04 515.229C1779.21 514.393 1779.79 513.231 1779.79 511.743C1779.79 510.209 1779.21 509.071 1778.04 508.327C1776.93 507.583 1775.25 507.211 1773.02 507.211H1763.89V516.415Z" fill="#FC8A8A"/>
<rect x="309.876" y="607.149" width="377.249" height="95.2874" rx="23.2408" fill="#E2FCFC"/>
<path d="M358.635 679.196L364.701 630.39H374.183L368.117 679.196H358.635ZM333.117 668.807V659.813H379.273V668.807H333.117ZM340.577 679.196L346.643 630.39H356.125L350.059 679.196H340.577ZM335.418 649.773V640.779H381.644V649.773H335.418Z" fill="#7EE7E7"/>
<path d="M431.24 673.874C428.218 673.874 425.453 673.177 422.943 671.782C420.479 670.388 418.504 668.296 417.016 665.507C415.575 662.672 414.855 659.093 414.855 654.77C414.855 650.401 415.552 646.821 416.947 644.033C418.387 641.244 420.34 639.175 422.803 637.827C425.267 636.433 428.079 635.736 431.24 635.736C434.912 635.736 438.142 636.526 440.931 638.106C443.766 639.687 445.998 641.894 447.624 644.73C449.298 647.565 450.134 650.912 450.134 654.77C450.134 658.628 449.298 661.998 447.624 664.88C445.998 667.715 443.766 669.923 440.931 671.503C438.142 673.084 434.912 673.874 431.24 673.874ZM410.602 686.912V636.154H418.899V644.939L418.62 654.84L419.317 664.74V686.912H410.602ZM430.263 666.413C432.355 666.413 434.214 665.949 435.841 665.019C437.515 664.089 438.839 662.741 439.815 660.975C440.792 659.209 441.28 657.14 441.28 654.77C441.28 652.353 440.792 650.284 439.815 648.565C438.839 646.798 437.515 645.45 435.841 644.521C434.214 643.591 432.355 643.126 430.263 643.126C428.172 643.126 426.289 643.591 424.616 644.521C422.943 645.45 421.618 646.798 420.642 648.565C419.666 650.284 419.178 652.353 419.178 654.77C419.178 657.14 419.666 659.209 420.642 660.975C421.618 662.741 422.943 664.089 424.616 665.019C426.289 665.949 428.172 666.413 430.263 666.413ZM460.446 687.4C458.633 687.4 456.821 687.098 455.008 686.494C453.195 685.889 451.684 685.053 450.476 683.984L453.962 677.569C454.845 678.359 455.845 678.987 456.96 679.452C458.076 679.916 459.214 680.149 460.377 680.149C461.957 680.149 463.235 679.754 464.211 678.964C465.187 678.173 466.094 676.849 466.93 674.989L469.092 670.109L469.789 669.063L483.873 636.154H492.24L474.809 676.384C473.647 679.173 472.346 681.381 470.905 683.007C469.51 684.634 467.93 685.773 466.163 686.424C464.444 687.075 462.538 687.4 460.446 687.4ZM468.116 674.71L451.313 636.154H460.377L474.042 668.296L468.116 674.71ZM512.722 673.874C508.632 673.874 505.471 672.828 503.24 670.736C501.009 668.598 499.893 665.461 499.893 661.324V627.927H508.609V661.115C508.609 662.881 509.05 664.252 509.933 665.228C510.863 666.204 512.141 666.692 513.768 666.692C515.72 666.692 517.347 666.181 518.649 665.158L521.089 671.364C520.066 672.2 518.811 672.828 517.324 673.246C515.837 673.665 514.303 673.874 512.722 673.874ZM493.758 643.405V636.433H518.579V643.405H493.758ZM549.384 635.736C552.359 635.736 555.009 636.317 557.333 637.479C559.703 638.641 561.563 640.43 562.91 642.847C564.258 645.218 564.932 648.286 564.932 652.051V673.386H556.217V653.166C556.217 649.866 555.427 647.403 553.847 645.776C552.313 644.149 550.151 643.335 547.362 643.335C545.317 643.335 543.504 643.754 541.924 644.59C540.344 645.427 539.112 646.682 538.229 648.355C537.392 649.982 536.974 652.051 536.974 654.561V673.386H528.258V621.652H536.974V646.194L535.091 643.126C536.393 640.756 538.275 638.943 540.739 637.688C543.249 636.386 546.131 635.736 549.384 635.736ZM592.79 673.874C588.978 673.874 585.585 673.06 582.61 671.434C579.636 669.76 577.288 667.483 575.568 664.601C573.849 661.719 572.989 658.442 572.989 654.77C572.989 651.051 573.849 647.774 575.568 644.939C577.288 642.057 579.636 639.803 582.61 638.176C585.585 636.549 588.978 635.736 592.79 635.736C596.648 635.736 600.064 636.549 603.039 638.176C606.06 639.803 608.408 642.034 610.081 644.869C611.801 647.705 612.661 651.005 612.661 654.77C612.661 658.442 611.801 661.719 610.081 664.601C608.408 667.483 606.06 669.76 603.039 671.434C600.064 673.06 596.648 673.874 592.79 673.874ZM592.79 666.413C594.928 666.413 596.834 665.949 598.507 665.019C600.18 664.089 601.482 662.741 602.412 660.975C603.388 659.209 603.876 657.14 603.876 654.77C603.876 652.353 603.388 650.284 602.412 648.565C601.482 646.798 600.18 645.45 598.507 644.521C596.834 643.591 594.951 643.126 592.86 643.126C590.721 643.126 588.816 643.591 587.142 644.521C585.515 645.45 584.214 646.798 583.238 648.565C582.262 650.284 581.774 652.353 581.774 654.77C581.774 657.14 582.262 659.209 583.238 660.975C584.214 662.741 585.515 664.089 587.142 665.019C588.816 665.949 590.698 666.413 592.79 666.413ZM642.121 635.736C645.095 635.736 647.745 636.317 650.069 637.479C652.44 638.641 654.299 640.43 655.647 642.847C656.995 645.218 657.669 648.286 657.669 652.051V673.386H648.953V653.166C648.953 649.866 648.163 647.403 646.583 645.776C645.049 644.149 642.888 643.335 640.099 643.335C638.053 643.335 636.241 643.754 634.66 644.59C633.08 645.427 631.848 646.682 630.965 648.355C630.128 649.982 629.71 652.051 629.71 654.561V673.386H620.995V636.154H629.292V646.194L627.828 643.126C629.129 640.756 631.012 638.943 633.475 637.688C635.985 636.386 638.867 635.736 642.121 635.736Z" fill="#7EE7E7"/>
<rect x="726.375" y="607.149" width="344.249" height="95.2874" rx="23.2408" fill="#E2FCE2"/>
<path d="M775.135 679.196L781.2 630.39H790.683L784.617 679.196H775.135ZM749.616 668.807V659.813H795.772V668.807H749.616ZM757.077 679.196L763.142 630.39H772.625L766.559 679.196H757.077ZM751.917 649.773V640.779H798.143V649.773H751.917Z" fill="#77D977"/>
<path d="M827.241 673.386V636.154H862.939V673.386H854.293V641.523L856.315 643.545H833.934L835.956 641.523V673.386H827.241ZM895.336 673.874C892.315 673.874 889.549 673.177 887.039 671.782C884.576 670.388 882.6 668.296 881.113 665.507C879.672 662.672 878.951 659.093 878.951 654.77C878.951 650.401 879.649 646.821 881.043 644.033C882.484 641.244 884.436 639.175 886.9 637.827C889.363 636.433 892.175 635.736 895.336 635.736C899.008 635.736 902.239 636.526 905.028 638.106C907.863 639.687 910.094 641.894 911.721 644.73C913.394 647.565 914.231 650.912 914.231 654.77C914.231 658.628 913.394 661.998 911.721 664.88C910.094 667.715 907.863 669.923 905.028 671.503C902.239 673.084 899.008 673.874 895.336 673.874ZM874.698 686.912V636.154H882.995V644.939L882.716 654.84L883.414 664.74V686.912H874.698ZM894.36 666.413C896.452 666.413 898.311 665.949 899.938 665.019C901.611 664.089 902.936 662.741 903.912 660.975C904.888 659.209 905.376 657.14 905.376 654.77C905.376 652.353 904.888 650.284 903.912 648.565C902.936 646.798 901.611 645.45 899.938 644.521C898.311 643.591 896.452 643.126 894.36 643.126C892.268 643.126 890.386 643.591 888.713 644.521C887.039 645.45 885.714 646.798 884.738 648.565C883.762 650.284 883.274 652.353 883.274 654.77C883.274 657.14 883.762 659.209 884.738 660.975C885.714 662.741 887.039 664.089 888.713 665.019C890.386 665.949 892.268 666.413 894.36 666.413ZM945.018 673.386V665.856L944.53 664.252V651.075C944.53 648.518 943.763 646.543 942.229 645.148C940.696 643.707 938.371 642.987 935.257 642.987C933.165 642.987 931.097 643.312 929.052 643.963C927.053 644.614 925.357 645.52 923.962 646.682L920.546 640.337C922.544 638.803 924.915 637.665 927.657 636.921C930.446 636.131 933.328 635.736 936.303 635.736C941.695 635.736 945.855 637.037 948.783 639.64C951.758 642.197 953.246 646.171 953.246 651.563V673.386H945.018ZM933.305 673.874C930.516 673.874 928.076 673.409 925.984 672.479C923.892 671.503 922.266 670.179 921.103 668.505C919.988 666.785 919.43 664.856 919.43 662.718C919.43 660.627 919.918 658.744 920.894 657.071C921.917 655.397 923.567 654.073 925.845 653.097C928.122 652.12 931.144 651.632 934.909 651.632H945.716V657.419H935.536C932.561 657.419 930.563 657.907 929.54 658.883C928.517 659.813 928.006 660.975 928.006 662.37C928.006 663.95 928.634 665.205 929.889 666.135C931.144 667.064 932.887 667.529 935.118 667.529C937.256 667.529 939.162 667.041 940.835 666.065C942.555 665.089 943.787 663.648 944.53 661.742L945.994 666.971C945.158 669.156 943.647 670.852 941.462 672.061C939.324 673.27 936.605 673.874 933.305 673.874ZM964.03 673.386V636.154H982.228C986.736 636.154 990.269 636.991 992.826 638.664C995.429 640.337 996.73 642.708 996.73 645.776C996.73 648.797 995.522 651.168 993.104 652.887C990.687 654.561 987.48 655.397 983.483 655.397L984.529 653.236C989.037 653.236 992.384 654.073 994.569 655.746C996.8 657.373 997.915 659.767 997.915 662.927C997.915 666.228 996.684 668.807 994.22 670.667C991.756 672.479 988.015 673.386 982.995 673.386H964.03ZM972.327 667.041H982.297C984.668 667.041 986.458 666.669 987.666 665.925C988.875 665.135 989.479 663.95 989.479 662.37C989.479 660.696 988.921 659.464 987.806 658.674C986.69 657.884 984.947 657.489 982.576 657.489H972.327V667.041ZM972.327 651.702H981.461C983.692 651.702 985.365 651.307 986.481 650.517C987.643 649.68 988.224 648.518 988.224 647.031C988.224 645.497 987.643 644.358 986.481 643.614C985.365 642.871 983.692 642.499 981.461 642.499H972.327V651.702ZM1023.79 673.874C1019.98 673.874 1016.59 673.06 1013.61 671.434C1010.64 669.76 1008.29 667.483 1006.57 664.601C1004.85 661.719 1003.99 658.442 1003.99 654.77C1003.99 651.051 1004.85 647.774 1006.57 644.939C1008.29 642.057 1010.64 639.803 1013.61 638.176C1016.59 636.549 1019.98 635.736 1023.79 635.736C1027.65 635.736 1031.07 636.549 1034.04 638.176C1037.06 639.803 1039.41 642.034 1041.08 644.869C1042.8 647.705 1043.66 651.005 1043.66 654.77C1043.66 658.442 1042.8 661.719 1041.08 664.601C1039.41 667.483 1037.06 669.76 1034.04 671.434C1031.07 673.06 1027.65 673.874 1023.79 673.874ZM1023.79 666.413C1025.93 666.413 1027.84 665.949 1029.51 665.019C1031.18 664.089 1032.48 662.741 1033.41 660.975C1034.39 659.209 1034.88 657.14 1034.88 654.77C1034.88 652.353 1034.39 650.284 1033.41 648.565C1032.48 646.798 1031.18 645.45 1029.51 644.521C1027.84 643.591 1025.95 643.126 1023.86 643.126C1021.72 643.126 1019.82 643.591 1018.14 644.521C1016.52 645.45 1015.22 646.798 1014.24 648.565C1013.26 650.284 1012.78 652.353 1012.78 654.77C1012.78 657.14 1013.26 659.209 1014.24 660.975C1015.22 662.741 1016.52 664.089 1018.14 665.019C1019.82 665.949 1021.7 666.413 1023.79 666.413Z" fill="#77D977"/>
<rect x="1109.87" y="607.149" width="500.249" height="95.2874" rx="23.2408" fill="#FCFCE2"/>
<path d="M1158.63 679.196L1164.7 630.39H1174.18L1168.12 679.196H1158.63ZM1133.12 668.807V659.813H1179.27V668.807H1133.12ZM1140.58 679.196L1146.64 630.39H1156.12L1150.06 679.196H1140.58ZM1135.42 649.773V640.779H1181.64V649.773H1135.42Z" fill="#DADA82"/>
<path d="M1210.74 673.386V636.154H1228.94C1233.45 636.154 1236.98 636.991 1239.54 638.664C1242.14 640.337 1243.44 642.708 1243.44 645.776C1243.44 648.797 1242.23 651.168 1239.81 652.887C1237.4 654.561 1234.19 655.397 1230.19 655.397L1231.24 653.236C1235.75 653.236 1239.09 654.073 1241.28 655.746C1243.51 657.373 1244.62 659.767 1244.62 662.927C1244.62 666.228 1243.39 668.807 1240.93 670.667C1238.47 672.479 1234.72 673.386 1229.7 673.386H1210.74ZM1219.04 667.041H1229.01C1231.38 667.041 1233.17 666.669 1234.38 665.925C1235.58 665.135 1236.19 663.95 1236.19 662.37C1236.19 660.696 1235.63 659.464 1234.52 658.674C1233.4 657.884 1231.66 657.489 1229.29 657.489H1219.04V667.041ZM1219.04 651.702H1228.17C1230.4 651.702 1232.07 651.307 1233.19 650.517C1234.35 649.68 1234.93 648.518 1234.93 647.031C1234.93 645.497 1234.35 644.358 1233.19 643.614C1232.07 642.871 1230.4 642.499 1228.17 642.499H1219.04V651.702ZM1270.5 673.874C1266.69 673.874 1263.3 673.06 1260.32 671.434C1257.35 669.76 1255 667.483 1253.28 664.601C1251.56 661.719 1250.7 658.442 1250.7 654.77C1250.7 651.051 1251.56 647.774 1253.28 644.939C1255 642.057 1257.35 639.803 1260.32 638.176C1263.3 636.549 1266.69 635.736 1270.5 635.736C1274.36 635.736 1277.78 636.549 1280.75 638.176C1283.77 639.803 1286.12 642.034 1287.79 644.869C1289.51 647.705 1290.37 651.005 1290.37 654.77C1290.37 658.442 1289.51 661.719 1287.79 664.601C1286.12 667.483 1283.77 669.76 1280.75 671.434C1277.78 673.06 1274.36 673.874 1270.5 673.874ZM1270.5 666.413C1272.64 666.413 1274.55 665.949 1276.22 665.019C1277.89 664.089 1279.19 662.741 1280.12 660.975C1281.1 659.209 1281.59 657.14 1281.59 654.77C1281.59 652.353 1281.1 650.284 1280.12 648.565C1279.19 646.798 1277.89 645.45 1276.22 644.521C1274.55 643.591 1272.66 643.126 1270.57 643.126C1268.43 643.126 1266.53 643.591 1264.85 644.521C1263.23 645.45 1261.93 646.798 1260.95 648.565C1259.97 650.284 1259.49 652.353 1259.49 654.77C1259.49 657.14 1259.97 659.209 1260.95 660.975C1261.93 662.741 1263.23 664.089 1264.85 665.019C1266.53 665.949 1268.41 666.413 1270.5 666.413ZM1342.17 673.386L1331.29 655.537L1338.4 651.144L1352.56 673.386H1342.17ZM1324.25 658.465V651.214H1336.73V658.465H1324.25ZM1339.24 655.816L1331.01 654.84L1342.31 636.154H1351.58L1339.24 655.816ZM1302.85 673.386H1292.53L1306.61 651.144L1313.72 655.537L1302.85 673.386ZM1326.83 673.386H1318.19V636.154H1326.83V673.386ZM1320.77 658.465H1308.35V651.214H1320.77V658.465ZM1305.77 655.816L1293.43 636.154H1302.71L1313.93 654.84L1305.77 655.816ZM1384.55 669.342V643.545H1370.26L1370.05 649.541C1369.96 651.679 1369.82 653.747 1369.63 655.746C1369.45 657.698 1369.15 659.511 1368.73 661.184C1368.31 662.811 1367.7 664.159 1366.91 665.228C1366.12 666.297 1365.08 666.995 1363.78 667.32L1355.13 665.995C1356.53 665.995 1357.64 665.554 1358.48 664.67C1359.36 663.741 1360.04 662.486 1360.5 660.905C1361.01 659.279 1361.38 657.443 1361.62 655.397C1361.85 653.306 1362.01 651.144 1362.1 648.913L1362.59 636.154H1393.27V669.342H1384.55ZM1353.81 681.683V665.995H1398.78V681.683H1390.62V673.386H1361.89V681.683H1353.81ZM1423.92 673.874C1419.79 673.874 1416.16 673.06 1413.05 671.434C1409.98 669.76 1407.58 667.483 1405.86 664.601C1404.19 661.719 1403.35 658.442 1403.35 654.77C1403.35 651.051 1404.17 647.774 1405.79 644.939C1407.47 642.057 1409.75 639.803 1412.63 638.176C1415.56 636.549 1418.88 635.736 1422.6 635.736C1426.22 635.736 1429.45 636.526 1432.29 638.106C1435.12 639.687 1437.36 641.918 1438.98 644.8C1440.61 647.681 1441.42 651.075 1441.42 654.979C1441.42 655.351 1441.4 655.769 1441.35 656.234C1441.35 656.699 1441.33 657.14 1441.28 657.559H1410.26V651.772H1436.68L1433.27 653.585C1433.31 651.446 1432.87 649.564 1431.94 647.937C1431.01 646.31 1429.73 645.032 1428.11 644.102C1426.53 643.173 1424.69 642.708 1422.6 642.708C1420.46 642.708 1418.58 643.173 1416.95 644.102C1415.37 645.032 1414.12 646.333 1413.19 648.007C1412.3 649.634 1411.86 651.563 1411.86 653.794V655.188C1411.86 657.419 1412.37 659.395 1413.39 661.115C1414.42 662.834 1415.86 664.159 1417.72 665.089C1419.58 666.018 1421.71 666.483 1424.13 666.483C1426.22 666.483 1428.11 666.158 1429.78 665.507C1431.45 664.856 1432.94 663.834 1434.24 662.439L1438.91 667.808C1437.24 669.76 1435.12 671.271 1432.57 672.34C1430.06 673.363 1427.18 673.874 1423.92 673.874ZM1450.96 673.386V636.154H1459.67V651.284H1478.43V636.154H1487.14V673.386H1478.43V658.674H1459.67V673.386H1450.96ZM1498.82 673.386V636.154H1507.54V660.696L1528.1 636.154H1536.05V673.386H1527.34V648.843L1506.84 673.386H1498.82ZM1565.14 673.874C1561 673.874 1557.38 673.06 1554.26 671.434C1551.19 669.76 1548.8 667.483 1547.08 664.601C1545.41 661.719 1544.57 658.442 1544.57 654.77C1544.57 651.051 1545.38 647.774 1547.01 644.939C1548.68 642.057 1550.96 639.803 1553.84 638.176C1556.77 636.549 1560.09 635.736 1563.81 635.736C1567.44 635.736 1570.67 636.526 1573.5 638.106C1576.34 639.687 1578.57 641.918 1580.2 644.8C1581.82 647.681 1582.64 651.075 1582.64 654.979C1582.64 655.351 1582.61 655.769 1582.57 656.234C1582.57 656.699 1582.55 657.14 1582.5 657.559H1551.47V651.772H1577.9L1574.48 653.585C1574.53 651.446 1574.09 649.564 1573.16 647.937C1572.23 646.31 1570.95 645.032 1569.32 644.102C1567.74 643.173 1565.9 642.708 1563.81 642.708C1561.68 642.708 1559.79 643.173 1558.17 644.102C1556.59 645.032 1555.33 646.333 1554.4 648.007C1553.52 649.634 1553.08 651.563 1553.08 653.794V655.188C1553.08 657.419 1553.59 659.395 1554.61 661.115C1555.63 662.834 1557.07 664.159 1558.93 665.089C1560.79 666.018 1562.93 666.483 1565.35 666.483C1567.44 666.483 1569.32 666.158 1570.99 665.507C1572.67 664.856 1574.16 663.834 1575.46 662.439L1580.13 667.808C1578.45 669.76 1576.34 671.271 1573.78 672.34C1571.27 673.363 1568.39 673.874 1565.14 673.874Z" fill="#DADA82"/>
</svg>
