<?xml version="1.0" encoding="UTF-8"?>
<svg version="1.1" xmlns="http://www.w3.org/2000/svg" width="1575" height="1074">
<path d="M0 0 C519.75 0 1039.5 0 1575 0 C1575 354.42 1575 708.84 1575 1074 C1055.25 1074 535.5 1074 0 1074 C0 719.58 0 365.16 0 0 Z " fill="#1A2538" transform="translate(0,0)"/>
<path d="M0 0 C11.27139422 2.47420849 22.01077333 18.13335346 30.17822266 26.21826172 C32.20006699 28.21767477 34.23126697 30.20682685 36.27099609 32.18798828 C39.22646347 35.05883528 42.15290434 37.95771029 45.078125 40.859375 C45.99360107 41.74185913 46.90907715 42.62434326 47.85229492 43.53356934 C53.9615604 49.66258015 53.9615604 49.66258015 55.0859375 54.50585938 C53.98138393 58.5062005 52.19478293 59.86885413 49.203125 62.703125 C47.67776847 64.23302683 46.15279425 65.76330992 44.62817383 67.29394531 C40.31589786 71.6221451 36.00147795 75.9481953 31.68542957 80.2726326 C29.08169159 82.88161595 26.4789098 85.49153947 23.87817383 88.10351562 C21.35236083 90.64016927 18.82413417 93.17439372 16.29419518 95.70693207 C15.33203742 96.67093827 14.37076062 97.63582456 13.41037941 98.60160065 C12.07253634 99.94667209 10.73129611 101.28836209 9.38989258 102.62988281 C8.62775955 103.39423645 7.86562653 104.15859009 7.08039856 104.94610596 C4.7199943 107.15530728 3.63055121 107.6510149 0.40083313 108.04476929 C-3.78691884 107.59734836 -5.02214006 106.21033698 -7.96020508 103.23681641 C-8.67599731 102.52474785 -8.67599731 102.52474785 -9.40625 101.79829407 C-10.97441082 100.23104896 -12.52016793 98.64354083 -14.06640625 97.0546875 C-15.15278425 95.95965201 -16.24042463 94.8658676 -17.32926941 93.77328491 C-20.1881933 90.89714764 -23.02822264 88.00301334 -25.8651123 85.10516357 C-28.1875176 82.73911871 -30.52294752 80.38617245 -32.85919666 78.03380775 C-35.64090076 75.23251636 -38.4170744 72.42577862 -41.19140625 69.6171875 C-41.98762862 68.81132643 -41.98762862 68.81132643 -42.79993629 67.98918533 C-44.29643286 66.47174648 -45.78916924 64.95071957 -47.28051758 63.42822266 C-48.13067947 62.56218414 -48.98084137 61.69614563 -49.85676575 60.80386353 C-52.1346858 58.33734552 -52.71851187 57.27778794 -53.171875 53.953125 C-52.55996735 48.64992534 -49.22366933 45.88023032 -45.296875 42.640625 C-44.471875 42.00125 -43.646875 41.361875 -42.796875 40.703125 C-39.93521418 37.98821602 -37.32241288 35.16351945 -34.796875 32.140625 C-32.36492354 29.26084617 -29.79132892 27.00655109 -26.796875 24.703125 C-25.95125 23.836875 -25.105625 22.970625 -24.234375 22.078125 C-22.05135855 19.95108333 -20.50083219 18.94934628 -17.796875 17.703125 C-17.10851562 18.42628906 -17.10851562 18.42628906 -16.40625 19.1640625 C-15.79265625 19.79570312 -15.1790625 20.42734375 -14.546875 21.078125 C-13.94359375 21.70460938 -13.3403125 22.33109375 -12.71875 22.9765625 C-10.89445064 24.79952563 -10.89445064 24.79952563 -8.59375 25.65625 C-8.00078125 26.00171875 -7.4078125 26.3471875 -6.796875 26.703125 C-6.328125 28.7265625 -6.328125 28.7265625 -6.296875 31.078125 C-6.33852676 33.42201291 -6.33852676 33.42201291 -5.796875 35.703125 C-5.13816406 36.2698291 -4.47945312 36.8365332 -3.80078125 37.42041016 C-1.08638684 40.51246519 -1.28080651 42.44264142 -1.265625 46.515625 C-1.2617981 47.16635986 -1.25797119 47.81709473 -1.25402832 48.48754883 C-1.25131424 49.85922804 -1.25864047 51.23095944 -1.27539062 52.60253906 C-1.29681381 54.69714185 -1.27557863 56.78831584 -1.25 58.8828125 C-1.25264337 60.21875754 -1.25776857 61.55470045 -1.265625 62.890625 C-1.27013672 64.10105469 -1.27464844 65.31148437 -1.27929688 66.55859375 C-1.89337629 70.28941583 -3.03408065 71.25274103 -5.796875 73.703125 C-6.17287588 77.31273349 -5.71679697 80.23285024 -4.796875 83.703125 C1.27274284 84.25093148 1.27274284 84.25093148 6.765625 82.078125 C8.64223456 78.97763964 8.79765234 77.27028903 8.203125 73.703125 C7.54086914 73.12014648 6.87861328 72.53716797 6.19628906 71.93652344 C3.47316186 68.88518003 3.74160947 67.00951032 3.8125 62.96875 C3.82539062 61.67324219 3.83828125 60.37773438 3.8515625 59.04296875 C3.88498134 57.67967676 3.91884109 56.31639551 3.953125 54.953125 C3.97319793 53.57424436 3.99144733 52.19533588 4.0078125 50.81640625 C4.05497052 47.44460756 4.12077962 44.07421813 4.203125 40.703125 C4.66203125 41.10144531 5.1209375 41.49976563 5.59375 41.91015625 C6.20734375 42.43996094 6.8209375 42.96976563 7.453125 43.515625 C8.09008301 44.06742432 8.72704102 44.61922363 9.38330078 45.18774414 C11.23646775 46.78834552 11.23646775 46.78834552 13.5703125 48.26171875 C15.81733933 50.24533812 15.92283525 51.83805332 16.328125 54.765625 C16.79270897 58.68820429 16.79270897 58.68820429 19.203125 61.703125 C21.85849872 62.26832503 24.49457213 62.44100698 27.203125 62.703125 C27.203125 62.043125 27.203125 61.383125 27.203125 60.703125 C27.863125 60.703125 28.523125 60.703125 29.203125 60.703125 C29.37114551 59.24494703 29.53749643 57.7865766 29.703125 56.328125 C29.7959375 55.51601563 29.88875 54.70390625 29.984375 53.8671875 C30.23664851 51.73399675 30.23664851 51.73399675 30.203125 49.703125 C27.41861895 48.5218194 25.02100697 47.67455747 22.015625 47.203125 C16.12623878 45.56501757 11.77560245 40.41604717 8.203125 35.703125 C7.3525089 32.90163935 7.30868929 30.65892513 7.203125 27.703125 C4.79317815 25.57124894 3.10916419 25.69957931 -0.109375 25.578125 C-5.49337226 24.30056633 -7.49027365 20.91003859 -10.796875 16.703125 C-11.7809508 15.68745044 -12.7755734 14.68135966 -13.796875 13.703125 C-12.2743496 10.17216184 -10.20306758 7.7177336 -7.546875 4.953125 C-6.79921875 4.15390625 -6.0515625 3.3546875 -5.28125 2.53125 C-2.796875 0.703125 -2.796875 0.703125 0 0 Z " fill="#FAFAFA" transform="translate(703.796875,481.296875)"/>
<path d="M0 0 C0 3.3 0 6.6 0 10 C-2.64 10 -5.28 10 -8 10 C-7.67644531 10.54914062 -7.35289062 11.09828125 -7.01953125 11.6640625 C-4.72837085 16.91354111 -5.35744606 23.13997544 -7.1875 28.4375 C-10.52104316 33.15044033 -14.71157787 35.81631474 -20 38 C-22.97210968 38.34388911 -25.88835488 38.28621115 -28.875 38.1875 C-30.050625 38.16719727 -30.050625 38.16719727 -31.25 38.14648438 C-33.16696782 38.11141789 -35.08357751 38.05762072 -37 38 C-37.33 39.65 -37.66 41.3 -38 43 C-36.76765625 42.96519531 -35.5353125 42.93039062 -34.265625 42.89453125 C-12.46726701 42.46235664 -12.46726701 42.46235664 -3.8125 48.0625 C-0.17333729 51.95263944 -0.61151437 55.81299681 -0.6484375 60.9453125 C-1.26379838 66.29211477 -3.87923284 69.25144911 -7.9140625 72.578125 C-14.3250414 76.94815556 -21.59700677 77.27934043 -29.125 77.3125 C-29.87668457 77.31789795 -30.62836914 77.3232959 -31.40283203 77.32885742 C-36.56310354 77.26388794 -41.03500213 76.40478341 -46 75 C-46.9075 74.773125 -47.815 74.54625 -48.75 74.3125 C-52.11644683 72.34873935 -53.77176833 69.60475093 -55 66 C-54.93437833 62.12832137 -54.73672568 59.92772864 -52.3125 56.875 C-51.6628125 55.946875 -51.6628125 55.946875 -51 55 C-51.70339566 52.49034386 -51.70339566 52.49034386 -53 50 C-54.03403127 46.81836531 -54.26327188 45.58504863 -52.875 42.5 C-50.79777447 39.73036597 -48.51282583 37.3769974 -46 35 C-46.42152344 34.37351562 -46.84304688 33.74703125 -47.27734375 33.1015625 C-47.82519531 32.28429687 -48.37304688 31.46703125 -48.9375 30.625 C-49.48277344 29.81289063 -50.02804687 29.00078125 -50.58984375 28.1640625 C-53.76883496 23.28549981 -53.54590952 18.71227061 -53 13 C-51.21731625 6.98202301 -46.35239661 2.97023126 -41 0 C-28.43746473 -3.45984578 -12.87113074 -0.65170282 0 0 Z " fill="#F6F7F7" transform="translate(833,509)"/>
<path d="M0 0 C3.3 0 6.6 0 10 0 C10 5.28 10 10.56 10 16 C14.95 16 19.9 16 25 16 C25 19.3 25 22.6 25 26 C20.05 26 15.1 26 10 26 C10.07392857 30.2368717 10.15667396 34.47160105 10.26245117 38.70751953 C10.29573178 40.14881342 10.32375404 41.59023863 10.34643555 43.03173828 C10.3799262 45.10245797 10.432233 47.17197093 10.48828125 49.2421875 C10.51446533 50.4885498 10.54064941 51.73491211 10.56762695 53.01904297 C10.71031006 54.00275879 10.85299316 54.98647461 11 56 C14.52679099 58.35119399 16.02879485 58.21443452 20.1875 58.125 C21.27417969 58.10695313 22.36085938 58.08890625 23.48046875 58.0703125 C24.31191406 58.04710937 25.14335938 58.02390625 26 58 C26.66 60.97 27.32 63.94 28 67 C19.22012627 70.87144038 10.87237814 72.88755012 1.5 69.875 C-2.62270685 66.78296986 -5.10092815 63.06460705 -6 58 C-6.08220526 55.61056705 -6.10745472 53.21895153 -6.09765625 50.828125 C-6.0962413 50.1457074 -6.09482635 49.46328979 -6.09336853 48.76019287 C-6.08779084 46.59008316 -6.07524254 44.4200783 -6.0625 42.25 C-6.05748211 40.77474108 -6.05291971 39.29948053 -6.04882812 37.82421875 C-6.03782875 34.21611202 -6.02057953 30.60806625 -6 27 C-8.64 27 -11.28 27 -14 27 C-14 23.7 -14 20.4 -14 17 C-12.7625 16.62875 -11.525 16.2575 -10.25 15.875 C-5.84674033 14.2023837 -4.11135804 12.30392216 -2 8 C-1.16540087 5.33791657 -0.56678416 2.73945678 0 0 Z " fill="#F7F7F7" transform="translate(879,491)"/>
<path d="M0 0 C7.26 0 14.52 0 22 0 C22 14.85 22 29.7 22 45 C24.31 45 26.62 45 29 45 C29 47.97 29 50.94 29 54 C19.1 54 9.2 54 -1 54 C-1 51.03 -1 48.06 -1 45 C1.31 45 3.62 45 6 45 C5.67 33.78 5.34 22.56 5 11 C2.525 10.01 2.525 10.01 0 9 C0 6.03 0 3.06 0 0 Z " fill="#F6F7F8" transform="translate(838,508)"/>
<path d="M0 0 C0.99 0 1.98 0 3 0 C3.94484125 1.38351754 4.87954671 2.77554362 5.75 4.20703125 C7.68711042 6.98557401 10.14037958 9.18136246 12.609375 11.484375 C14 13 14 13 14 15 C15.5778125 14.9071875 15.5778125 14.9071875 17.1875 14.8125 C21.28220457 15.01387891 23.02140684 15.1966182 26 18 C26.061875 19.175625 26.12375 20.35125 26.1875 21.5625 C26.54359826 27.20770476 30.35601066 30.24272961 34.29296875 33.9375 C37.91904685 36.70022617 40.55856195 37.23423482 45 38 C47.5 39.75 47.5 39.75 49 42 C49.50299316 46.10777749 49.32749345 47.50875983 47 51 C46.34 51 45.68 51 45 51 C45 51.66 45 52.32 45 53 C37.75471698 53.60377358 37.75471698 53.60377358 34.5 51 C32.50683522 47.01367043 32.7003959 44.41916048 33 40 C32.46375 39.79375 31.9275 39.5875 31.375 39.375 C29.09795632 38.05671155 27.67682631 36.77933209 25.8515625 34.9140625 C25.31611816 34.36959473 24.78067383 33.82512695 24.22900391 33.26416016 C23.82343262 32.8469873 23.41786133 32.42981445 23 32 C22.88394902 36.58312084 22.81279638 41.16586449 22.75 45.75 C22.71648438 47.05195312 22.68296875 48.35390625 22.6484375 49.6953125 C22.62910156 51.57089844 22.62910156 51.57089844 22.609375 53.484375 C22.5779541 55.21252441 22.5779541 55.21252441 22.54589844 56.97558594 C23.09696525 60.64580939 24.28027358 61.5972888 27 64 C27.5625 66.9375 27.5625 66.9375 27 70 C24.9375 72.875 24.9375 72.875 22 75 C16.10817942 75.81266491 16.10817942 75.81266491 13.125 73.625 C10.83338073 70.31488328 10.67877622 68.01529725 11 64 C12.375 61.625 12.375 61.625 14 60 C14.66 60 15.32 60 16 60 C16 50.1 16 40.2 16 30 C14.68 29.34 13.36 28.68 12 28 C10.79727181 25.59454362 10.89928528 24.05003047 10.9375 21.375 C10.94652344 20.55773437 10.95554687 19.74046875 10.96484375 18.8984375 C10.97644531 18.27195312 10.98804688 17.64546875 11 17 C9.948125 16.690625 9.948125 16.690625 8.875 16.375 C5.59689751 14.80721185 3.80962056 12.93086863 1.4296875 10.2421875 C-0.06177806 8.67206386 -0.06177806 8.67206386 -3 9 C-2.67 7.35 -2.34 5.7 -2 4 C-1.67 4.66 -1.34 5.32 -1 6 C-0.01 5.67 0.98 5.34 2 5 C1.67 4.01 1.34 3.02 1 2 C0.34 1.67 -0.32 1.34 -1 1 C-0.67 0.67 -0.34 0.34 0 0 Z " fill="#222D40" transform="translate(686,491)"/>
<path d="M0 0 C0.66 0.33 1.32 0.66 2 1 C2 3.97 2 6.94 2 10 C3.98 10.66 5.96 11.32 8 12 C8 23.22 8 34.44 8 46 C5.69 46 3.38 46 1 46 C1 47.98 1 49.96 1 52 C0.01 52 -0.98 52 -2 52 C-2.495 52.99 -2.495 52.99 -3 54 C-3.66 53.34 -4.32 52.68 -5 52 C-6.65514188 50.95652096 -6.65514188 50.95652096 -8.5625 50 C-9.49255859 49.505 -9.49255859 49.505 -10.44140625 49 C-17.44521619 46.26263306 -24.60878126 45.65256284 -32.0625 45.375 C-33.3609082 45.31699219 -33.3609082 45.31699219 -34.68554688 45.2578125 C-36.79006359 45.16479519 -38.8950009 45.08137331 -41 45 C-40.67 43.35 -40.34 41.7 -40 40 C-38.87722656 39.98582031 -37.75445313 39.97164062 -36.59765625 39.95703125 C-24.44437008 39.74549604 -24.44437008 39.74549604 -14 34 C-10.59627154 29.94908373 -9.86080151 26.7946438 -9.875 21.5625 C-9.87242187 20.61503906 -9.86984375 19.66757812 -9.8671875 18.69140625 C-9.98526525 16.29859541 -10.31887365 14.28663847 -11 12 C-8.36 12 -5.72 12 -3 12 C-3 8.7 -3 5.4 -3 2 C-2.01 2 -1.02 2 0 2 C0 1.34 0 0.68 0 0 Z " fill="#212C40" transform="translate(836,507)"/>
<path d="M0 0 C2.5 0.9375 2.5 0.9375 4 3 C5.20878341 7.38712299 5.5289132 10.79105553 3.6875 15 C1.80041251 17.23654814 0.86577814 17.89804543 -2.0234375 18.23828125 C-5.71251581 18.35471395 -8.2666391 18.39351073 -11.5625 16.625 C-13.81981342 12.5029494 -13.72358826 8.58526458 -13 4 C-10.16399715 -1.17878781 -5.29747119 -0.75956388 0 0 Z " fill="#F8F8F9" transform="translate(855,482)"/>
<path d="M0 0 C2.625 1.5 2.625 1.5 4 4 C4.57174062 7.67117661 4.34087756 10.89214792 3.25 14.4375 C2 16 2 16 0.375 16.75 C-0.40875 16.8325 -1.1925 16.915 -2 17 C-2.62648438 17.07476563 -3.25296875 17.14953125 -3.8984375 17.2265625 C-7.73494666 17.4975427 -9.41469232 17.46824614 -12.5 15 C-14.57342659 10.85314682 -14.58651804 8.61882953 -14 4 C-11.04074183 -1.38046939 -5.46217226 -0.87104408 0 0 Z " fill="#222D41" transform="translate(809,519)"/>
<path d="M0 0 C7.04951934 0.01398714 13.94361419 0.15121449 20.9375 1.1328125 C21.125 4.0078125 21.125 4.0078125 20.9375 7.1328125 C15.59482946 10.69459286 9.20444772 10.60283358 2.9375 10.1328125 C-2.52591463 8.66939787 -2.52591463 8.66939787 -4.0625 7.1328125 C-4.1875 4.1328125 -4.1875 4.1328125 -4.0625 1.1328125 C-3.0625 0.1328125 -3.0625 0.1328125 0 0 Z " fill="#212C40" transform="translate(795.0625,565.8671875)"/>
<path d="M0 0 C0.66 0.33 1.32 0.66 2 1 C4.09821215 0.60061233 4.09821215 0.60061233 6 0 C6.33 0.99 6.66 1.98 7 3 C7.61875 2.79375 8.2375 2.5875 8.875 2.375 C9.926875 2.189375 9.926875 2.189375 11 2 C13 4 13 4 13.4375 6.8125 C13 10 13 10 10.9375 12.875 C7.2906002 15.51318284 5.41055377 15.65341537 1 15 C-1.10358381 13.45737187 -1.84054159 12.31891683 -3 10 C-3.30343947 6.51044604 -3.39470082 4.62494296 -1.5 1.625 C-1.005 1.08875 -0.51 0.5525 0 0 Z " fill="#273245" transform="translate(700,551)"/>
<path d="M0 0 C0.66 0.33 1.32 0.66 2 1 C-9.33333333 12.33333333 -20.66666667 23.66666667 -32 35 C-32 31.00102358 -30.64683965 29.93298448 -28 27 C-26.34997172 25.64613064 -24.6825613 24.31321858 -23 23 C-20.13833918 20.28509102 -17.52553788 17.46039445 -15 14.4375 C-12.56804854 11.55772117 -9.99445392 9.30342609 -7 7 C-5.31384218 5.35305515 -3.64429829 3.68873879 -2 2 C-1.34 1.34 -0.68 0.68 0 0 Z " fill="#DADDE1" transform="translate(684,499)"/>
<path d="M0 0 C1.39456452 0.00667256 2.78911118 0.01863093 4.18359375 0.03515625 C4.89451172 0.03966797 5.60542969 0.04417969 6.33789062 0.04882812 C8.09899388 0.06064761 9.86005411 0.07858362 11.62109375 0.09765625 C11.62109375 0.75765625 11.62109375 1.41765625 11.62109375 2.09765625 C9.98140625 2.31421875 9.98140625 2.31421875 8.30859375 2.53515625 C4.68986388 2.98053729 4.68986388 2.98053729 1.62109375 4.09765625 C0.63109375 3.76765625 -0.35890625 3.43765625 -1.37890625 3.09765625 C-1.04890625 4.08765625 -0.71890625 5.07765625 -0.37890625 6.09765625 C0.61109375 6.09765625 1.60109375 6.09765625 2.62109375 6.09765625 C2.62109375 6.75765625 2.62109375 7.41765625 2.62109375 8.09765625 C4.27109375 8.09765625 5.92109375 8.09765625 7.62109375 8.09765625 C7.29109375 8.75765625 6.96109375 9.41765625 6.62109375 10.09765625 C5.16186682 9.98356032 3.70368777 9.85600081 2.24609375 9.72265625 C1.43398438 9.65304687 0.621875 9.5834375 -0.21484375 9.51171875 C-2.37890625 9.09765625 -2.37890625 9.09765625 -4.37890625 7.09765625 C-4.56640625 4.03515625 -4.56640625 4.03515625 -4.37890625 1.09765625 C-3.37890625 0.09765625 -3.37890625 0.09765625 0 0 Z " fill="#2B3546" transform="translate(795.37890625,565.90234375)"/>
<path d="M0 0 C4.95 0 9.9 0 15 0 C15 1.65 15 3.3 15 5 C9.72 5 4.44 5 -1 5 C-0.67 3.35 -0.34 1.7 0 0 Z " fill="#1E2A3D" transform="translate(796,547)"/>
<path d="M0 0 C0.33 0.99 0.66 1.98 1 3 C0.34 3 -0.32 3 -1 3 C-0.67 4.65 -0.34 6.3 0 8 C1.65 8.33 3.3 8.66 5 9 C4.6875 10.9375 4.6875 10.9375 4 13 C3.01 13.33 2.02 13.66 1 14 C-3.875 8.375 -3.875 8.375 -5 5 C-5.66 4.34 -6.32 3.68 -7 3 C-2.25 0 -2.25 0 0 0 Z " fill="#202B40" transform="translate(722,484)"/>
<path d="M0 0 C0.66 0 1.32 0 2 0 C2 0.99 2 1.98 2 3 C2.66 3.33 3.32 3.66 4 4 C4 4.99 4 5.98 4 7 C4.66 7 5.32 7 6 7 C6 6.34 6 5.68 6 5 C7.65 4.67 9.3 4.34 11 4 C11.33 4.99 11.66 5.98 12 7 C11.34 7 10.68 7 10 7 C10 7.66 10 8.32 10 9 C9.34 9 8.68 9 8 9 C7.67 9.99 7.34 10.98 7 12 C-0.48291572 5.84965831 -0.48291572 5.84965831 -3 2 C-2.01 2 -1.02 2 0 2 C0 1.34 0 0.68 0 0 Z " fill="#222D41" transform="translate(727,496)"/>
<path d="M0 0 C0.66 0.99 1.32 1.98 2 3 C-5.56756757 10.78378378 -5.56756757 10.78378378 -10 13 C-10.268125 13.66 -10.53625 14.32 -10.8125 15 C-12 17 -12 17 -14.625 17.75 C-15.40875 17.8325 -16.1925 17.915 -17 18 C-11.72898586 11.58930713 -5.90871848 5.81409488 0 0 Z " fill="#31384A" transform="translate(750,546)"/>
<path d="M0 0 C0.66 0.33 1.32 0.66 2 1 C2 2.65 2 4.3 2 6 C2.33 6 2.66 6 3 6 C3 7.65 3 9.3 3 11 C2.01 11.495 2.01 11.495 1 12 C1.33 13.32 1.66 14.64 2 16 C1.01 16 0.02 16 -1 16 C-1.33 16.99 -1.66 17.98 -2 19 C-2.99 19 -3.98 19 -5 19 C-5 18.01 -5 17.02 -5 16 C-4.01 15.34 -3.02 14.68 -2 14 C-1.45468285 11.97432418 -1.45468285 11.97432418 -1.375 9.6875 C-1.11406692 6.38589776 -0.73120286 3.23818408 0 0 Z " fill="#2A3545" transform="translate(860,483)"/>
<path d="M0 0 C1.65 1.32 3.3 2.64 5 4 C5 3.34 5 2.68 5 2 C6.65 1.67 8.3 1.34 10 1 C9.67 2.65 9.34 4.3 9 6 C8.34 6 7.68 6 7 6 C6.67 6.99 6.34 7.98 6 9 C4.85073734 8.04578192 3.70569459 7.08647955 2.5625 6.125 C1.92441406 5.59132813 1.28632812 5.05765625 0.62890625 4.5078125 C-1 3 -1 3 -2 1 C-1.34 0.67 -0.68 0.34 0 0 Z " fill="#242E42" transform="translate(736,507)"/>
<path d="M0 0 C1.65 0 3.3 0 5 0 C5 0.66 5 1.32 5 2 C5.66 2 6.32 2 7 2 C7.33 1.34 7.66 0.68 8 0 C8.33 0.99 8.66 1.98 9 3 C6.48169253 6.12270126 5.2738451 6.94523098 1.25 7.75 C-0.35875 7.87375 -0.35875 7.87375 -2 8 C-1.67 7.4225 -1.34 6.845 -1 6.25 C0.27075898 3.80116138 0.27075898 3.80116138 0 0 Z " fill="#252E42" transform="translate(867,500)"/>
<path d="M0 0 C0.66 0.33 1.32 0.66 2 1 C1.875 2.875 1.875 2.875 1 5 C-3.58916476 7.29458238 -7.05316434 6.98936713 -12 6 C-9.48149965 4.69037982 -6.92816395 3.53543302 -4.3125 2.4375 C-1.20933592 1.33172477 -1.20933592 1.33172477 0 0 Z " fill="#2B3548" transform="translate(825,580)"/>
<path d="M0 0 C0.99 0.99 1.98 1.98 3 3 C1.35 4.65 -0.3 6.3 -2 8 C-3.32 7.34 -4.64 6.68 -6 6 C-5.67 4.68 -5.34 3.36 -5 2 C-3.35 2 -1.7 2 0 2 C0 1.34 0 0.68 0 0 Z " fill="#2B3548" transform="translate(785,541)"/>
<path d="M0 0 C0.66 0.33 1.32 0.66 2 1 C1.58578031 5.83256305 -0.46413986 7.82679218 -4 11 C-4.49230769 4.6 -4.49230769 4.6 -2 1.5625 C-1.34 1.046875 -0.68 0.53125 0 0 Z " fill="#313A4D" transform="translate(799,519)"/>
<path d="M0 0 C2.32590854 3.63423209 2.16265833 6.77088331 2 11 C0.33333333 9.33333333 -1.33333333 7.66666667 -3 6 C-3.33 6 -3.66 6 -4 6 C-4 4.35 -4 2.7 -4 1 C-2.68 0.67 -1.36 0.34 0 0 Z " fill="#242F43" transform="translate(777,566)"/>
<path d="M0 0 C2.70931419 0.15481795 4.46584039 0.48172081 6.4453125 2.40234375 C7.67679642 3.89771708 8.8429837 5.4462924 10 7 C9.34 7.66 8.68 8.32 8 9 C6.66368764 7.6905332 5.33102075 6.37734515 4 5.0625 C3.2575 4.33160156 2.515 3.60070312 1.75 2.84765625 C0 1 0 1 0 0 Z " fill="#313A4B" transform="translate(708,521)"/>
<path d="M0 0 C0.66 0.99 1.32 1.98 2 3 C2.66 2.01 3.32 1.02 4 0 C3.72510809 4.03174806 3.46508424 5.56894631 0.4375 8.375 C-0.366875 8.91125 -1.17125 9.4475 -2 10 C-2.66 9.67 -3.32 9.34 -4 9 C-3.34 8.01 -2.68 7.02 -2 6 C-1.34 6 -0.68 6 0 6 C0 4.02 0 2.04 0 0 Z " fill="#373F51" transform="translate(758,533)"/>
<path d="M0 0 C0 3.12900213 -0.42451317 4.37418862 -2 7 C-2.99 7.495 -2.99 7.495 -4 8 C-4.99 6.68 -5.98 5.36 -7 4 C-6.34 4 -5.68 4 -5 4 C-5 3.34 -5 2.68 -5 2 C-3.35 1.34 -1.7 0.68 0 0 Z " fill="#1F2B41" transform="translate(762,523)"/>
<path d="M0 0 C0 3.66842255 -0.79029126 5.10451959 -3 8 C-5.6875 8.8125 -5.6875 8.8125 -8 9 C-7.04270084 7.87411986 -6.08412105 6.7493285 -5.125 5.625 C-4.59132813 4.99851562 -4.05765625 4.37203125 -3.5078125 3.7265625 C-2.38567993 2.44163349 -1.20628025 1.20628025 0 0 Z " fill="#383F4F" transform="translate(741,555)"/>
<path d="M0 0 C0.33 0.66 0.66 1.32 1 2 C3.64 2 6.28 2 9 2 C9 3.65 9 5.3 9 7 C8.67 5.68 8.34 4.36 8 3 C5.03 3.66 2.06 4.32 -1 5 C-1.33 4.01 -1.66 3.02 -2 2 C-1.34 2 -0.68 2 0 2 C0 1.34 0 0.68 0 0 Z " fill="#262F43" transform="translate(864,516)"/>
<path d="M0 0 C0.66 0.99 1.32 1.98 2 3 C2 2.34 2 1.68 2 1 C2.99 1.33 3.98 1.66 5 2 C3.8125 3.5625 3.8125 3.5625 2 5 C-0.6875 4.6875 -0.6875 4.6875 -3 4 C-3 3.34 -3 2.68 -3 2 C-2.01 1.34 -1.02 0.68 0 0 Z " fill="#2B3648" transform="translate(710,586)"/>
<path d="M0 0 C5.52 -0.368 5.52 -0.368 7.875 1.4375 C9 3 9 3 9 4 C3.375 4.25 3.375 4.25 0 2 C0 1.34 0 0.68 0 0 Z " fill="#1A273B" transform="translate(797,547)"/>
<path d="M0 0 C0.7734375 0.433125 0.7734375 0.433125 1.5625 0.875 C4.62356725 2.28780027 7.74944918 3.1248517 11 4 C11 4.33 11 4.66 11 5 C9.02 5 7.04 5 5 5 C4.67 5.99 4.34 6.98 4 8 C4 7.01 4 6.02 4 5 C3.34 5 2.68 5 2 5 C2 4.01 2 3.02 2 2 C1.34 2 0.68 2 0 2 C0 1.34 0 0.68 0 0 Z " fill="#2C3646" transform="translate(718,524)"/>
<path d="M0 0 C2.31 0.33 4.62 0.66 7 1 C6.01 2.485 6.01 2.485 5 4 C4.401875 3.835 3.80375 3.67 3.1875 3.5 C0.88655664 2.8885876 0.88655664 2.8885876 -2 3 C-1.34 2.01 -0.68 1.02 0 0 Z " fill="#192439" transform="translate(801,519)"/>
<path d="M0 0 C1.5 1.375 1.5 1.375 3 3 C3 3.66 3 4.32 3 5 C2.01 5 1.02 5 0 5 C-0.33 5.99 -0.66 6.98 -1 8 C-1.99 8 -2.98 8 -4 8 C-4 7.01 -4 6.02 -4 5 C-3.01 4.34 -2.02 3.68 -1 3 C-0.67 2.01 -0.34 1.02 0 0 Z " fill="#333C4E" transform="translate(859,494)"/>
<path d="M0 0 C3.49234244 -0.09978121 6.59437148 0.22157062 10 1 C10 1.66 10 2.32 10 3 C9.01 3 8.02 3 7 3 C6.67 3.66 6.34 4.32 6 5 C5.34 4.34 4.68 3.68 4 3 C2.68252676 2.30251417 1.35085807 1.63040043 0 1 C0 0.67 0 0.34 0 0 Z " fill="#31384B" transform="translate(827,556)"/>
<path d="M0 0 C0.33 0.66 0.66 1.32 1 2 C2.33076989 2.34342449 3.66431979 2.67619874 5 3 C5.66 3.66 6.32 4.32 7 5 C4.36 5 1.72 5 -1 5 C-0.67 3.35 -0.34 1.7 0 0 Z " fill="#4E5665" transform="translate(796,547)"/>
<path d="M0 0 C0.66 0 1.32 0 2 0 C2 0.66 2 1.32 2 2 C2.99 2.33 3.98 2.66 5 3 C4.34 4.32 3.68 5.64 3 7 C3.66 7.33 4.32 7.66 5 8 C3.68 7.67 2.36 7.34 1 7 C1.33 6.34 1.66 5.68 2 5 C0.68 4.67 -0.64 4.34 -2 4 C-1.01 4 -0.02 4 1 4 C0.67 2.68 0.34 1.36 0 0 Z " fill="#1A253B" transform="translate(818,545)"/>
<path d="M0 0 C4.875 2.625 4.875 2.625 6 6 C2.48283697 6 1.62878252 5.17554415 -1 3 C-0.67 2.01 -0.34 1.02 0 0 Z " fill="#283142" transform="translate(708,480)"/>
<path d="M0 0 C0.66 0.33 1.32 0.66 2 1 C1.34 2.65 0.68 4.3 0 6 C-0.99 6 -1.98 6 -3 6 C-3.33 5.34 -3.66 4.68 -4 4 C-2.68 2.68 -1.36 1.36 0 0 Z " fill="#2B3548" transform="translate(655,523)"/>
<path d="M0 0 C0.66 0 1.32 0 2 0 C1.67 1.65 1.34 3.3 1 5 C0.34 5 -0.32 5 -1 5 C-1.33 5.66 -1.66 6.32 -2 7 C-2 3 -2 3 0 0 Z " fill="#1F2B41" transform="translate(752,516)"/>
<path d="M0 0 C0.33 0 0.66 0 1 0 C1.33 3.3 1.66 6.6 2 10 C0.68 9.67 -0.64 9.34 -2 9 C-1.34 6.03 -0.68 3.06 0 0 Z " fill="#4F5866" transform="translate(841,488)"/>
<path d="M0 0 C0.66 0.33 1.32 0.66 2 1 C1.67 2.32 1.34 3.64 1 5 C-0.65 5.33 -2.3 5.66 -4 6 C-2.84826645 3.53199953 -1.95216435 1.95216435 0 0 Z " fill="#30394D" transform="translate(695,483)"/>
</svg>
