<svg width="44" height="44" viewBox="0 0 44 44" fill="none" xmlns="http://www.w3.org/2000/svg">
<rect width="44" height="44" rx="22" fill="white" fill-opacity="0.15"/>
<path d="M29.3334 30.25V28.4167C29.3334 27.4442 28.9471 26.5116 28.2595 25.8239C27.5718 25.1363 26.6392 24.75 25.6667 24.75H18.3334C17.361 24.75 16.4283 25.1363 15.7407 25.8239C15.0531 26.5116 14.6667 27.4442 14.6667 28.4167V30.25" stroke="white" stroke-width="2" stroke-linecap="round" stroke-linejoin="round"/>
<path d="M21.9999 21.0833C24.025 21.0833 25.6666 19.4417 25.6666 17.4167C25.6666 15.3916 24.025 13.75 21.9999 13.75C19.9749 13.75 18.3333 15.3916 18.3333 17.4167C18.3333 19.4417 19.9749 21.0833 21.9999 21.0833Z" stroke="white" stroke-width="2" stroke-linecap="round" stroke-linejoin="round"/>
</svg>
